%TF.GenerationSoftware,KiCad,Pcbnew,7.0.6*%
%TF.CreationDate,2023-10-01T11:41:10+05:30*%
%TF.ProjectId,Wm PCB,576d2050-4342-42e6-9b69-6361645f7063,rev?*%
%TF.SameCoordinates,Original*%
%TF.FileFunction,Copper,L2,Bot*%
%TF.FilePolarity,Positive*%
%FSLAX46Y46*%
G04 Gerber Fmt 4.6, Leading zero omitted, Abs format (unit mm)*
G04 Created by KiCad (PCBNEW 7.0.6) date 2023-10-01 11:41:10*
%MOMM*%
%LPD*%
G01*
G04 APERTURE LIST*
%ADD10C,0.304800*%
%ADD11C,0.508000*%
%TA.AperFunction,ComponentPad*%
%ADD12O,2.032000X3.000000*%
%TD*%
%TA.AperFunction,ComponentPad*%
%ADD13O,3.000000X2.032000*%
%TD*%
%TA.AperFunction,Conductor*%
%ADD14C,0.762000*%
%TD*%
%TA.AperFunction,Profile*%
%ADD15C,0.100000*%
%TD*%
G04 APERTURE END LIST*
D10*
G36*
X180104998Y-114420027D02*
G01*
X180131964Y-114423935D01*
X180160245Y-114432063D01*
X180184076Y-114443942D01*
X180203458Y-114459572D01*
X180213907Y-114472077D01*
X180226768Y-114493931D01*
X180236968Y-114519012D01*
X180244507Y-114547322D01*
X180248757Y-114573379D01*
X180251159Y-114601678D01*
X180251750Y-114625930D01*
X180251172Y-114652248D01*
X180249438Y-114677693D01*
X180245328Y-114710263D01*
X180239163Y-114741282D01*
X180230943Y-114770750D01*
X180220668Y-114798667D01*
X180208338Y-114825033D01*
X180193953Y-114849848D01*
X180185990Y-114861674D01*
X179894413Y-114861674D01*
X179894413Y-114632755D01*
X179895159Y-114604372D01*
X179897399Y-114578161D01*
X179902297Y-114548451D01*
X179909527Y-114522134D01*
X179919091Y-114499209D01*
X179933645Y-114476177D01*
X179942182Y-114466494D01*
X179961215Y-114450260D01*
X179982952Y-114437384D01*
X180007394Y-114427868D01*
X180034541Y-114421710D01*
X180059229Y-114419144D01*
X180074943Y-114418725D01*
X180104998Y-114420027D01*
G37*
G36*
X180104998Y-107414732D02*
G01*
X180131964Y-107418640D01*
X180160245Y-107426767D01*
X180184076Y-107438647D01*
X180203458Y-107454277D01*
X180213907Y-107466782D01*
X180226768Y-107488636D01*
X180236968Y-107513717D01*
X180244507Y-107542027D01*
X180248757Y-107568084D01*
X180251159Y-107596382D01*
X180251750Y-107620635D01*
X180251172Y-107646953D01*
X180249438Y-107672398D01*
X180245328Y-107704968D01*
X180239163Y-107735987D01*
X180230943Y-107765454D01*
X180220668Y-107793371D01*
X180208338Y-107819737D01*
X180193953Y-107844552D01*
X180185990Y-107856378D01*
X179894413Y-107856378D01*
X179894413Y-107627459D01*
X179895159Y-107599077D01*
X179897399Y-107572866D01*
X179902297Y-107543156D01*
X179909527Y-107516838D01*
X179919091Y-107493914D01*
X179933645Y-107470882D01*
X179942182Y-107461198D01*
X179961215Y-107444964D01*
X179982952Y-107432089D01*
X180007394Y-107422573D01*
X180034541Y-107416415D01*
X180059229Y-107413849D01*
X180074943Y-107413429D01*
X180104998Y-107414732D01*
G37*
G36*
X180104998Y-100039692D02*
G01*
X180131964Y-100043600D01*
X180160245Y-100051728D01*
X180184076Y-100063607D01*
X180203458Y-100079238D01*
X180213907Y-100091742D01*
X180226768Y-100113596D01*
X180236968Y-100138677D01*
X180244507Y-100166987D01*
X180248757Y-100193044D01*
X180251159Y-100221343D01*
X180251750Y-100245595D01*
X180251172Y-100271913D01*
X180249438Y-100297358D01*
X180245328Y-100329928D01*
X180239163Y-100360947D01*
X180230943Y-100390415D01*
X180220668Y-100418332D01*
X180208338Y-100444698D01*
X180193953Y-100469513D01*
X180185990Y-100481339D01*
X179894413Y-100481339D01*
X179894413Y-100252420D01*
X179895159Y-100224037D01*
X179897399Y-100197826D01*
X179902297Y-100168116D01*
X179909527Y-100141799D01*
X179919091Y-100118874D01*
X179933645Y-100095842D01*
X179942182Y-100086159D01*
X179961215Y-100069925D01*
X179982952Y-100057049D01*
X180007394Y-100047533D01*
X180034541Y-100041375D01*
X180059229Y-100038809D01*
X180074943Y-100038390D01*
X180104998Y-100039692D01*
G37*
G36*
X179822403Y-96309381D02*
G01*
X179851578Y-96309610D01*
X179879575Y-96309991D01*
X179906394Y-96310526D01*
X179932036Y-96311213D01*
X179964392Y-96312366D01*
X179994655Y-96313791D01*
X180022824Y-96315488D01*
X180048899Y-96317455D01*
X180055091Y-96317990D01*
X180084616Y-96321276D01*
X180111930Y-96325320D01*
X180137033Y-96330122D01*
X180164238Y-96336883D01*
X180188258Y-96344734D01*
X180205842Y-96352110D01*
X180229688Y-96365410D01*
X180251231Y-96382503D01*
X180267180Y-96401854D01*
X180274704Y-96416009D01*
X180282801Y-96440306D01*
X180287774Y-96465198D01*
X180290653Y-96493193D01*
X180291454Y-96520233D01*
X180290653Y-96547001D01*
X180287774Y-96574685D01*
X180282801Y-96599268D01*
X180274704Y-96623215D01*
X180260782Y-96646576D01*
X180242347Y-96665115D01*
X180221264Y-96679616D01*
X180205842Y-96687734D01*
X180180605Y-96697819D01*
X180155523Y-96705235D01*
X180127257Y-96711516D01*
X180101270Y-96715884D01*
X180073071Y-96719464D01*
X180055091Y-96721235D01*
X180029539Y-96723416D01*
X180001893Y-96725306D01*
X179972154Y-96726905D01*
X179940321Y-96728214D01*
X179915072Y-96729005D01*
X179888645Y-96729632D01*
X179861041Y-96730095D01*
X179832259Y-96730395D01*
X179802299Y-96730531D01*
X179792051Y-96730540D01*
X179762158Y-96730459D01*
X179733433Y-96730213D01*
X179705874Y-96729804D01*
X179679482Y-96729232D01*
X179654256Y-96728496D01*
X179622438Y-96727260D01*
X179592694Y-96725733D01*
X179565024Y-96723915D01*
X179539428Y-96721807D01*
X179533354Y-96721235D01*
X179504380Y-96718127D01*
X179477556Y-96714231D01*
X179452883Y-96709548D01*
X179426115Y-96702889D01*
X179402444Y-96695095D01*
X179385084Y-96687734D01*
X179360967Y-96674396D01*
X179341347Y-96659197D01*
X179324651Y-96639873D01*
X179315601Y-96623215D01*
X179307504Y-96599268D01*
X179302532Y-96574685D01*
X179299653Y-96547001D01*
X179298851Y-96520233D01*
X179299653Y-96493193D01*
X179302532Y-96465198D01*
X179307504Y-96440306D01*
X179315601Y-96416009D01*
X179329584Y-96392975D01*
X179348177Y-96374628D01*
X179369483Y-96360214D01*
X179385084Y-96352110D01*
X179409990Y-96341996D01*
X179434694Y-96334508D01*
X179462494Y-96328110D01*
X179488027Y-96323612D01*
X179515711Y-96319871D01*
X179533354Y-96317990D01*
X179558431Y-96315954D01*
X179585582Y-96314190D01*
X179614807Y-96312697D01*
X179646107Y-96311476D01*
X179670943Y-96310738D01*
X179696947Y-96310153D01*
X179724117Y-96309720D01*
X179752453Y-96309440D01*
X179781957Y-96309313D01*
X179792051Y-96309304D01*
X179822403Y-96309381D01*
G37*
G36*
X181130761Y-120369936D02*
G01*
X177784575Y-120369936D01*
X177784575Y-119299849D01*
X178822402Y-119299849D01*
X178822523Y-119325886D01*
X178822887Y-119351263D01*
X178823886Y-119388093D01*
X178825431Y-119423440D01*
X178827521Y-119457304D01*
X178830157Y-119489685D01*
X178833337Y-119520582D01*
X178837063Y-119549997D01*
X178841334Y-119577929D01*
X178846151Y-119604377D01*
X178851512Y-119629342D01*
X178853421Y-119637334D01*
X178860943Y-119668092D01*
X178868310Y-119696774D01*
X178875522Y-119723383D01*
X178882578Y-119747917D01*
X178891181Y-119775667D01*
X178899542Y-119800176D01*
X178909255Y-119825309D01*
X178920174Y-119847897D01*
X178933465Y-119870776D01*
X178949382Y-119892344D01*
X178968215Y-119910768D01*
X178972533Y-119914023D01*
X178995014Y-119926318D01*
X179020517Y-119933869D01*
X179047095Y-119937868D01*
X179073041Y-119939359D01*
X179082340Y-119939458D01*
X179323666Y-119939458D01*
X179321919Y-119910470D01*
X179320245Y-119882441D01*
X179318643Y-119855373D01*
X179317114Y-119829264D01*
X179315657Y-119804114D01*
X179313609Y-119768189D01*
X179311724Y-119734423D01*
X179310003Y-119702817D01*
X179308445Y-119673370D01*
X179307051Y-119646082D01*
X179305821Y-119620953D01*
X179304435Y-119590806D01*
X179303126Y-119563597D01*
X179301992Y-119538113D01*
X179300820Y-119508684D01*
X179299920Y-119481952D01*
X179299200Y-119453432D01*
X179298857Y-119425064D01*
X179298851Y-119421443D01*
X179299152Y-119391966D01*
X179300053Y-119364330D01*
X179301556Y-119338536D01*
X179304279Y-119308883D01*
X179307941Y-119282108D01*
X179313576Y-119253777D01*
X179318083Y-119237191D01*
X179329050Y-119212777D01*
X179347836Y-119192217D01*
X179373290Y-119179490D01*
X179401034Y-119174778D01*
X179409899Y-119174533D01*
X179438308Y-119177354D01*
X179462740Y-119185814D01*
X179483193Y-119199915D01*
X179499669Y-119219656D01*
X179507298Y-119233469D01*
X179517556Y-119257904D01*
X179526138Y-119281831D01*
X179534750Y-119309000D01*
X179541661Y-119333069D01*
X179548592Y-119359212D01*
X179555542Y-119387429D01*
X179562511Y-119417721D01*
X179569845Y-119445538D01*
X179577190Y-119472690D01*
X179584545Y-119499176D01*
X179591911Y-119524998D01*
X179599289Y-119550154D01*
X179606677Y-119574645D01*
X179614076Y-119598471D01*
X179623958Y-119629204D01*
X179633860Y-119658754D01*
X179641299Y-119680140D01*
X179651439Y-119707573D01*
X179662315Y-119733726D01*
X179673927Y-119758599D01*
X179686277Y-119782192D01*
X179699363Y-119804507D01*
X179713185Y-119825541D01*
X179731500Y-119850035D01*
X179743041Y-119863772D01*
X179763409Y-119885367D01*
X179785353Y-119905175D01*
X179808871Y-119923196D01*
X179833965Y-119939429D01*
X179860634Y-119953875D01*
X179888878Y-119966534D01*
X179900617Y-119971097D01*
X179925151Y-119979530D01*
X179951294Y-119986839D01*
X179979046Y-119993024D01*
X180008407Y-119998084D01*
X180039378Y-120002019D01*
X180071957Y-120004830D01*
X180097448Y-120006201D01*
X180123843Y-120006938D01*
X180141943Y-120007079D01*
X180175607Y-120006621D01*
X180208203Y-120005247D01*
X180239729Y-120002957D01*
X180270187Y-119999751D01*
X180299576Y-119995629D01*
X180327897Y-119990591D01*
X180355148Y-119984636D01*
X180381331Y-119977766D01*
X180406446Y-119969980D01*
X180430491Y-119961278D01*
X180445928Y-119954967D01*
X180475551Y-119941445D01*
X180503623Y-119926624D01*
X180530144Y-119910504D01*
X180555114Y-119893085D01*
X180578534Y-119874367D01*
X180600402Y-119854350D01*
X180620719Y-119833034D01*
X180639486Y-119810420D01*
X180656653Y-119786603D01*
X180672482Y-119761681D01*
X180686974Y-119735654D01*
X180700127Y-119708523D01*
X180711944Y-119680286D01*
X180722422Y-119650944D01*
X180731563Y-119620497D01*
X180739366Y-119588945D01*
X180744466Y-119564643D01*
X180749065Y-119539894D01*
X180753161Y-119514698D01*
X180756756Y-119489055D01*
X180759850Y-119462964D01*
X180762441Y-119436427D01*
X180764532Y-119409442D01*
X180766120Y-119382011D01*
X180767207Y-119354132D01*
X180767792Y-119325806D01*
X180767904Y-119306674D01*
X180767647Y-119272743D01*
X180766879Y-119239346D01*
X180765597Y-119206483D01*
X180763803Y-119174155D01*
X180761497Y-119142362D01*
X180758678Y-119111102D01*
X180755346Y-119080377D01*
X180751502Y-119050187D01*
X180747146Y-119020530D01*
X180742277Y-118991408D01*
X180738746Y-118972290D01*
X180733390Y-118944612D01*
X180728023Y-118918340D01*
X180722645Y-118893474D01*
X180715457Y-118862509D01*
X180708250Y-118834044D01*
X180701023Y-118808080D01*
X180691963Y-118779142D01*
X180682873Y-118754112D01*
X180681051Y-118749575D01*
X180669891Y-118726820D01*
X180655714Y-118703911D01*
X180637985Y-118682527D01*
X180618627Y-118666262D01*
X180610948Y-118661482D01*
X180585997Y-118650386D01*
X180561182Y-118643571D01*
X180533886Y-118639626D01*
X180507966Y-118638528D01*
X180266019Y-118638528D01*
X180268080Y-118666579D01*
X180270075Y-118694434D01*
X180272006Y-118722093D01*
X180273870Y-118749556D01*
X180275670Y-118776822D01*
X180277404Y-118803892D01*
X180279072Y-118830766D01*
X180280675Y-118857443D01*
X180282213Y-118883924D01*
X180283685Y-118910209D01*
X180284630Y-118927623D01*
X180285850Y-118953479D01*
X180286949Y-118978703D01*
X180288229Y-119011350D01*
X180289295Y-119042873D01*
X180290148Y-119073271D01*
X180290788Y-119102545D01*
X180291214Y-119130695D01*
X180291428Y-119157720D01*
X180291454Y-119170811D01*
X180291225Y-119200138D01*
X180290538Y-119227634D01*
X180289393Y-119253297D01*
X180287154Y-119284665D01*
X180284101Y-119312776D01*
X180280233Y-119337629D01*
X180274253Y-119364117D01*
X180265398Y-119389184D01*
X180251416Y-119411423D01*
X180232269Y-119428200D01*
X180207956Y-119439514D01*
X180183005Y-119444865D01*
X180159314Y-119446258D01*
X180133442Y-119444415D01*
X180109441Y-119437709D01*
X180104100Y-119435092D01*
X180083938Y-119420047D01*
X180067823Y-119399505D01*
X180065637Y-119396008D01*
X180053133Y-119371813D01*
X180043512Y-119347386D01*
X180035475Y-119322086D01*
X180034618Y-119319081D01*
X180027290Y-119293258D01*
X180020560Y-119267482D01*
X180014555Y-119243026D01*
X180008332Y-119216388D01*
X180002979Y-119192524D01*
X179996189Y-119164751D01*
X179989311Y-119137730D01*
X179982347Y-119111461D01*
X179975295Y-119085945D01*
X179968155Y-119061182D01*
X179960929Y-119037171D01*
X179951158Y-119006326D01*
X179941232Y-118976820D01*
X179931151Y-118948651D01*
X179926052Y-118935068D01*
X179915506Y-118908789D01*
X179904339Y-118883615D01*
X179892552Y-118859547D01*
X179880144Y-118836583D01*
X179867116Y-118814724D01*
X179853468Y-118793971D01*
X179835535Y-118769583D01*
X179824310Y-118755779D01*
X179804478Y-118734393D01*
X179782980Y-118714824D01*
X179759816Y-118697073D01*
X179734986Y-118681140D01*
X179708490Y-118667024D01*
X179680327Y-118654725D01*
X179668596Y-118650315D01*
X179644062Y-118642463D01*
X179617919Y-118635659D01*
X179590167Y-118629901D01*
X179560805Y-118625190D01*
X179529835Y-118621526D01*
X179497256Y-118618908D01*
X179471765Y-118617632D01*
X179445369Y-118616945D01*
X179427269Y-118616815D01*
X179392989Y-118617251D01*
X179359941Y-118618559D01*
X179328126Y-118620740D01*
X179297543Y-118623794D01*
X179268192Y-118627720D01*
X179240073Y-118632518D01*
X179213187Y-118638188D01*
X179187532Y-118644732D01*
X179163111Y-118652147D01*
X179132465Y-118663391D01*
X179125146Y-118666445D01*
X179096754Y-118679647D01*
X179069893Y-118694129D01*
X179044565Y-118709890D01*
X179020767Y-118726931D01*
X178998502Y-118745252D01*
X178977767Y-118764852D01*
X178958565Y-118785732D01*
X178940894Y-118807891D01*
X178924512Y-118831223D01*
X178909487Y-118855621D01*
X178895820Y-118881085D01*
X178883509Y-118907616D01*
X178872555Y-118935213D01*
X178862959Y-118963877D01*
X178854720Y-118993606D01*
X178847837Y-119024402D01*
X178841876Y-119056119D01*
X178836709Y-119088611D01*
X178833356Y-119113489D01*
X178830450Y-119138804D01*
X178827991Y-119164554D01*
X178825979Y-119190741D01*
X178824414Y-119217364D01*
X178823296Y-119244423D01*
X178822625Y-119271918D01*
X178822402Y-119299849D01*
X177784575Y-119299849D01*
X177784575Y-118025595D01*
X178147432Y-118025595D01*
X178147993Y-118058867D01*
X178149678Y-118090284D01*
X178152486Y-118119848D01*
X178156418Y-118147558D01*
X178161472Y-118173414D01*
X178169959Y-118205004D01*
X178180442Y-118233299D01*
X178192922Y-118258299D01*
X178207399Y-118280002D01*
X178211331Y-118284913D01*
X178228653Y-118302943D01*
X178248670Y-118318568D01*
X178271381Y-118331790D01*
X178296788Y-118342608D01*
X178324889Y-118351022D01*
X178355685Y-118357032D01*
X178380550Y-118359962D01*
X178406931Y-118361539D01*
X178425361Y-118361840D01*
X178452752Y-118361164D01*
X178478628Y-118359135D01*
X178510772Y-118354327D01*
X178540220Y-118347115D01*
X178566974Y-118337500D01*
X178591033Y-118325480D01*
X178612397Y-118311056D01*
X178631067Y-118294228D01*
X178639391Y-118284913D01*
X178654367Y-118264033D01*
X178667346Y-118239858D01*
X178678329Y-118212387D01*
X178687315Y-118181620D01*
X178692744Y-118156382D01*
X178697049Y-118129290D01*
X178700232Y-118100345D01*
X178702291Y-118069545D01*
X178703227Y-118036892D01*
X178703290Y-118025595D01*
X178702728Y-117992435D01*
X178701043Y-117961117D01*
X178698235Y-117931643D01*
X178694304Y-117904011D01*
X178689249Y-117878223D01*
X178680763Y-117846705D01*
X178670279Y-117818463D01*
X178657799Y-117793498D01*
X178643322Y-117771809D01*
X178639391Y-117766898D01*
X178622069Y-117748869D01*
X178602052Y-117733243D01*
X178589530Y-117725953D01*
X178862106Y-117725953D01*
X178862106Y-118189995D01*
X178864074Y-118220966D01*
X178869977Y-118247807D01*
X178882890Y-118275551D01*
X178901953Y-118296843D01*
X178927165Y-118311683D01*
X178951762Y-118318909D01*
X178980294Y-118322007D01*
X178988042Y-118322136D01*
X180728200Y-118322136D01*
X180728200Y-117858094D01*
X180726232Y-117827123D01*
X180720328Y-117800282D01*
X180707415Y-117772538D01*
X180688352Y-117751246D01*
X180663141Y-117736406D01*
X180638544Y-117729180D01*
X180610011Y-117726082D01*
X180602263Y-117725953D01*
X178862106Y-117725953D01*
X178589530Y-117725953D01*
X178579340Y-117720021D01*
X178553934Y-117709203D01*
X178525833Y-117700789D01*
X178495037Y-117694780D01*
X178470171Y-117691850D01*
X178443790Y-117690272D01*
X178425361Y-117689972D01*
X178397969Y-117690648D01*
X178372093Y-117692676D01*
X178339950Y-117697484D01*
X178310501Y-117704696D01*
X178283748Y-117714312D01*
X178259689Y-117726331D01*
X178238324Y-117740755D01*
X178219655Y-117757583D01*
X178211331Y-117766898D01*
X178196354Y-117787768D01*
X178183375Y-117811914D01*
X178172392Y-117839337D01*
X178163407Y-117870036D01*
X178157978Y-117895210D01*
X178153672Y-117922228D01*
X178150490Y-117951088D01*
X178148430Y-117981791D01*
X178147494Y-118014337D01*
X178147432Y-118025595D01*
X177784575Y-118025595D01*
X177784575Y-116859907D01*
X178822402Y-116859907D01*
X178823019Y-116891129D01*
X178824869Y-116921359D01*
X178827953Y-116950598D01*
X178832270Y-116978845D01*
X178837820Y-117006102D01*
X178844605Y-117032367D01*
X178852622Y-117057642D01*
X178861873Y-117081925D01*
X178872358Y-117105217D01*
X178884076Y-117127518D01*
X178897028Y-117148827D01*
X178926631Y-117188473D01*
X178961169Y-117224155D01*
X178980288Y-117240509D01*
X179000640Y-117255871D01*
X179022226Y-117270243D01*
X179045046Y-117283624D01*
X179069099Y-117296013D01*
X179094385Y-117307411D01*
X179120905Y-117317818D01*
X179148658Y-117327234D01*
X179177645Y-117335659D01*
X179207866Y-117343092D01*
X179239319Y-117349535D01*
X179272007Y-117354986D01*
X179305927Y-117359446D01*
X179341082Y-117362915D01*
X179377470Y-117365393D01*
X179415091Y-117366880D01*
X179453945Y-117367376D01*
X180728200Y-117367376D01*
X180728200Y-116902713D01*
X180726241Y-116871743D01*
X180720367Y-116844902D01*
X180707517Y-116817158D01*
X180688549Y-116795866D01*
X180663461Y-116781026D01*
X180638985Y-116773799D01*
X180610593Y-116770702D01*
X180602883Y-116770573D01*
X179520946Y-116770573D01*
X179493047Y-116769695D01*
X179467511Y-116767059D01*
X179439987Y-116761578D01*
X179415865Y-116753566D01*
X179392023Y-116741022D01*
X179383223Y-116734591D01*
X179365818Y-116716211D01*
X179352688Y-116692013D01*
X179344837Y-116666641D01*
X179340126Y-116636993D01*
X179338599Y-116609022D01*
X179338555Y-116603071D01*
X179339680Y-116575891D01*
X179343053Y-116548323D01*
X179347850Y-116523883D01*
X179354368Y-116499146D01*
X179356546Y-116492024D01*
X179365249Y-116467915D01*
X179377230Y-116442470D01*
X179391382Y-116419273D01*
X179407706Y-116398326D01*
X179409899Y-116395866D01*
X180728200Y-116395866D01*
X180728200Y-115931203D01*
X180726232Y-115900233D01*
X180720328Y-115873392D01*
X180707415Y-115845648D01*
X180688352Y-115824355D01*
X180663141Y-115809516D01*
X180638544Y-115802289D01*
X180610011Y-115799192D01*
X180602263Y-115799063D01*
X178862106Y-115799063D01*
X178862106Y-116142131D01*
X178863066Y-116171030D01*
X178865945Y-116196308D01*
X178871729Y-116221223D01*
X178883005Y-116246015D01*
X178889403Y-116254420D01*
X178909762Y-116271372D01*
X178932519Y-116284353D01*
X178956844Y-116295338D01*
X178980514Y-116304392D01*
X179007274Y-116313355D01*
X179072414Y-116335069D01*
X179047632Y-116358511D01*
X179024235Y-116381844D01*
X179002223Y-116405068D01*
X178981596Y-116428183D01*
X178962354Y-116451189D01*
X178944497Y-116474086D01*
X178928025Y-116496874D01*
X178912938Y-116519553D01*
X178899236Y-116542123D01*
X178886919Y-116564584D01*
X178879477Y-116579497D01*
X178869277Y-116602307D01*
X178860080Y-116625836D01*
X178851887Y-116650086D01*
X178844697Y-116675054D01*
X178838510Y-116700743D01*
X178833326Y-116727152D01*
X178829146Y-116754280D01*
X178825969Y-116782128D01*
X178823795Y-116810695D01*
X178822625Y-116839983D01*
X178822402Y-116859907D01*
X177784575Y-116859907D01*
X177784575Y-114661292D01*
X178822402Y-114661292D01*
X178822574Y-114687195D01*
X178823090Y-114712638D01*
X178823950Y-114737620D01*
X178826703Y-114786203D01*
X178830833Y-114832945D01*
X178836339Y-114877845D01*
X178843221Y-114920903D01*
X178851480Y-114962119D01*
X178861115Y-115001493D01*
X178872127Y-115039026D01*
X178884515Y-115074717D01*
X178898279Y-115108567D01*
X178913420Y-115140574D01*
X178929938Y-115170740D01*
X178947832Y-115199064D01*
X178967102Y-115225546D01*
X178987749Y-115250187D01*
X178998589Y-115261817D01*
X179021124Y-115283903D01*
X179044836Y-115304565D01*
X179069726Y-115323801D01*
X179095794Y-115341613D01*
X179123040Y-115357999D01*
X179151463Y-115372961D01*
X179181064Y-115386498D01*
X179211843Y-115398610D01*
X179243800Y-115409297D01*
X179276935Y-115418559D01*
X179311247Y-115426396D01*
X179346737Y-115432808D01*
X179383404Y-115437795D01*
X179421250Y-115441358D01*
X179460273Y-115443495D01*
X179500474Y-115444207D01*
X180728200Y-115444207D01*
X180728200Y-115101139D01*
X180727540Y-115075662D01*
X180725059Y-115049144D01*
X180722616Y-115034759D01*
X180713466Y-115010254D01*
X180698421Y-114990092D01*
X180678556Y-114974488D01*
X180656488Y-114962068D01*
X180648791Y-114958452D01*
X180625207Y-114948643D01*
X180600585Y-114939725D01*
X180575836Y-114931699D01*
X180570003Y-114929915D01*
X180506725Y-114908202D01*
X180526306Y-114889688D01*
X180545654Y-114869816D01*
X180564769Y-114848588D01*
X180583652Y-114826002D01*
X180602302Y-114802059D01*
X180620719Y-114776760D01*
X180638904Y-114750103D01*
X180652390Y-114729220D01*
X180656856Y-114722089D01*
X180669606Y-114700211D01*
X180681102Y-114677385D01*
X180691343Y-114653610D01*
X180700331Y-114628887D01*
X180708065Y-114603215D01*
X180714544Y-114576593D01*
X180719769Y-114549024D01*
X180723741Y-114520505D01*
X180726458Y-114491038D01*
X180727921Y-114460622D01*
X180728200Y-114439817D01*
X180727589Y-114408178D01*
X180725757Y-114377469D01*
X180722703Y-114347691D01*
X180718429Y-114318844D01*
X180712932Y-114290927D01*
X180706215Y-114263941D01*
X180698276Y-114237885D01*
X180689116Y-114212759D01*
X180678734Y-114188565D01*
X180667131Y-114165301D01*
X180654307Y-114142967D01*
X180640261Y-114121564D01*
X180624994Y-114101092D01*
X180608506Y-114081550D01*
X180590796Y-114062938D01*
X180571865Y-114045258D01*
X180551734Y-114028580D01*
X180530580Y-114012979D01*
X180508404Y-113998453D01*
X180485206Y-113985004D01*
X180460984Y-113972630D01*
X180435740Y-113961332D01*
X180409474Y-113951111D01*
X180382184Y-113941965D01*
X180353872Y-113933895D01*
X180324538Y-113926901D01*
X180294180Y-113920984D01*
X180262801Y-113916142D01*
X180230398Y-113912376D01*
X180196973Y-113909686D01*
X180162525Y-113908072D01*
X180127054Y-113907534D01*
X180090868Y-113908085D01*
X180056055Y-113909737D01*
X180022617Y-113912490D01*
X179990552Y-113916345D01*
X179959862Y-113921302D01*
X179930545Y-113927359D01*
X179902603Y-113934519D01*
X179876034Y-113942779D01*
X179850840Y-113952141D01*
X179827020Y-113962605D01*
X179811903Y-113970192D01*
X179790204Y-113982300D01*
X179762883Y-113999564D01*
X179737404Y-114018108D01*
X179713766Y-114037931D01*
X179691971Y-114059033D01*
X179672017Y-114081415D01*
X179653905Y-114105077D01*
X179637635Y-114130018D01*
X179633855Y-114136453D01*
X179619470Y-114162800D01*
X179606403Y-114190038D01*
X179594655Y-114218168D01*
X179584225Y-114247190D01*
X179575113Y-114277104D01*
X179567319Y-114307910D01*
X179560844Y-114339607D01*
X179555687Y-114372196D01*
X179552361Y-114397071D01*
X179549362Y-114422141D01*
X179546691Y-114447408D01*
X179544346Y-114472872D01*
X179542329Y-114498531D01*
X179540638Y-114524387D01*
X179539275Y-114550440D01*
X179538239Y-114576688D01*
X179537530Y-114603133D01*
X179537149Y-114629774D01*
X179537076Y-114647644D01*
X179537076Y-114861674D01*
X179537076Y-114865396D01*
X179444019Y-114865396D01*
X179415042Y-114863472D01*
X179389761Y-114857702D01*
X179364301Y-114845699D01*
X179344163Y-114828156D01*
X179329347Y-114805074D01*
X179322426Y-114786608D01*
X179315634Y-114759897D01*
X179309994Y-114729005D01*
X179306310Y-114701282D01*
X179303364Y-114670884D01*
X179301153Y-114637810D01*
X179299979Y-114611249D01*
X179299220Y-114583183D01*
X179298874Y-114553612D01*
X179298851Y-114543420D01*
X179298917Y-114516236D01*
X179299113Y-114489586D01*
X179299440Y-114463470D01*
X179299898Y-114437888D01*
X179300487Y-114412841D01*
X179301476Y-114380276D01*
X179302697Y-114348661D01*
X179304151Y-114317996D01*
X179305838Y-114288281D01*
X179306296Y-114281001D01*
X179307895Y-114253307D01*
X179309281Y-114228230D01*
X179310714Y-114200565D01*
X179311994Y-114172764D01*
X179312880Y-114147773D01*
X179313120Y-114132731D01*
X179311428Y-114104775D01*
X179305350Y-114077479D01*
X179293229Y-114052702D01*
X179277758Y-114035952D01*
X179256684Y-114022157D01*
X179231312Y-114012124D01*
X179206716Y-114007861D01*
X179195248Y-114007415D01*
X178943996Y-114007415D01*
X178933352Y-114033451D01*
X178922825Y-114061620D01*
X178912415Y-114091922D01*
X178904683Y-114116047D01*
X178897017Y-114141372D01*
X178889416Y-114167897D01*
X178881881Y-114195622D01*
X178874411Y-114224545D01*
X178867006Y-114254669D01*
X178862106Y-114275418D01*
X178855010Y-114307377D01*
X178848613Y-114340208D01*
X178842913Y-114373912D01*
X178837911Y-114408488D01*
X178833607Y-114443937D01*
X178830001Y-114480258D01*
X178827093Y-114517452D01*
X178825543Y-114542732D01*
X178824302Y-114568400D01*
X178823371Y-114594456D01*
X178822751Y-114620900D01*
X178822441Y-114647731D01*
X178822402Y-114661292D01*
X177784575Y-114661292D01*
X177784575Y-112034616D01*
X178147432Y-112034616D01*
X178147432Y-112499279D01*
X178149390Y-112530249D01*
X178155264Y-112557090D01*
X178168114Y-112584834D01*
X178187083Y-112606126D01*
X178212170Y-112620966D01*
X178236646Y-112628193D01*
X178265038Y-112631290D01*
X178272748Y-112631419D01*
X179033330Y-112631419D01*
X179007788Y-112655829D01*
X178983894Y-112680826D01*
X178961647Y-112706409D01*
X178941049Y-112732579D01*
X178922098Y-112759335D01*
X178904796Y-112786678D01*
X178889141Y-112814607D01*
X178875134Y-112843122D01*
X178862775Y-112872224D01*
X178852064Y-112901913D01*
X178843000Y-112932188D01*
X178835585Y-112963049D01*
X178829817Y-112994497D01*
X178825698Y-113026531D01*
X178823226Y-113059152D01*
X178822402Y-113092359D01*
X178823019Y-113123771D01*
X178824869Y-113154186D01*
X178827953Y-113183603D01*
X178832270Y-113212024D01*
X178837820Y-113239447D01*
X178844605Y-113265873D01*
X178852622Y-113291302D01*
X178861873Y-113315733D01*
X178872358Y-113339168D01*
X178884076Y-113361605D01*
X178897028Y-113383045D01*
X178911213Y-113403488D01*
X178926631Y-113422933D01*
X178943283Y-113441381D01*
X178961169Y-113458833D01*
X178980288Y-113475286D01*
X179000640Y-113490743D01*
X179022226Y-113505203D01*
X179045046Y-113518665D01*
X179069099Y-113531130D01*
X179094385Y-113542598D01*
X179120905Y-113553069D01*
X179148658Y-113562542D01*
X179177645Y-113571018D01*
X179207866Y-113578497D01*
X179239319Y-113584979D01*
X179272007Y-113590464D01*
X179305927Y-113594951D01*
X179341082Y-113598442D01*
X179377470Y-113600935D01*
X179415091Y-113602430D01*
X179453945Y-113602929D01*
X180728200Y-113602929D01*
X180728200Y-113138887D01*
X180726241Y-113107771D01*
X180720367Y-113080804D01*
X180710577Y-113057986D01*
X180692832Y-113035298D01*
X180668968Y-113019091D01*
X180645471Y-113010794D01*
X180618058Y-113006645D01*
X180602883Y-113006127D01*
X179520946Y-113006127D01*
X179493047Y-113005248D01*
X179467511Y-113002613D01*
X179439987Y-112997131D01*
X179415865Y-112989119D01*
X179392023Y-112976575D01*
X179383223Y-112970145D01*
X179365818Y-112951765D01*
X179352688Y-112927566D01*
X179344837Y-112902194D01*
X179340126Y-112872547D01*
X179338599Y-112844575D01*
X179338555Y-112838625D01*
X179339680Y-112811445D01*
X179343053Y-112783877D01*
X179347850Y-112759436D01*
X179354368Y-112734700D01*
X179356546Y-112727577D01*
X179365278Y-112703468D01*
X179377366Y-112678023D01*
X179391702Y-112654827D01*
X179408288Y-112633879D01*
X179410519Y-112631419D01*
X180728200Y-112631419D01*
X180728200Y-112166757D01*
X180726241Y-112135786D01*
X180720367Y-112108945D01*
X180707517Y-112081201D01*
X180688549Y-112059909D01*
X180663461Y-112045069D01*
X180638985Y-112037842D01*
X180610593Y-112034745D01*
X180602883Y-112034616D01*
X178147432Y-112034616D01*
X177784575Y-112034616D01*
X177784575Y-110151152D01*
X178147432Y-110151152D01*
X178147432Y-110615815D01*
X178149390Y-110646785D01*
X178155264Y-110673626D01*
X178168114Y-110701370D01*
X178187083Y-110722662D01*
X178212170Y-110737502D01*
X178236646Y-110744729D01*
X178265038Y-110747826D01*
X178272748Y-110747955D01*
X179592910Y-110747955D01*
X179567242Y-110767766D01*
X179541729Y-110787029D01*
X179516371Y-110805744D01*
X179491168Y-110823912D01*
X179466120Y-110841532D01*
X179441228Y-110858605D01*
X179416490Y-110875130D01*
X179391908Y-110891107D01*
X179367480Y-110906536D01*
X179343208Y-110921418D01*
X179319091Y-110935752D01*
X179295129Y-110949539D01*
X179271322Y-110962777D01*
X179247670Y-110975468D01*
X179224173Y-110987612D01*
X179200832Y-110999207D01*
X179177626Y-111010503D01*
X179154691Y-111021589D01*
X179132028Y-111032468D01*
X179098542Y-111048395D01*
X179065667Y-111063853D01*
X179033403Y-111078842D01*
X179001749Y-111093362D01*
X178970706Y-111107413D01*
X178940273Y-111120995D01*
X178910452Y-111134109D01*
X178881241Y-111146753D01*
X178862106Y-111154922D01*
X178862106Y-111615862D01*
X178864590Y-111641586D01*
X178873060Y-111667503D01*
X178885977Y-111688901D01*
X178887541Y-111690928D01*
X178905838Y-111707940D01*
X178929708Y-111718651D01*
X178955956Y-111722904D01*
X178965709Y-111723187D01*
X178992062Y-111720832D01*
X179018518Y-111715161D01*
X179040154Y-111708919D01*
X179066310Y-111699175D01*
X179091290Y-111687630D01*
X179114483Y-111675302D01*
X179138923Y-111660896D01*
X179142516Y-111658668D01*
X179166567Y-111644277D01*
X179191262Y-111629253D01*
X179216600Y-111613597D01*
X179242581Y-111597309D01*
X179269206Y-111580388D01*
X179296474Y-111562834D01*
X179324385Y-111544648D01*
X179352940Y-111525830D01*
X179382139Y-111506379D01*
X179411980Y-111486295D01*
X179432232Y-111472555D01*
X179462517Y-111451784D01*
X179492421Y-111430883D01*
X179521943Y-111409851D01*
X179551083Y-111388688D01*
X179579841Y-111367394D01*
X179608218Y-111345969D01*
X179636213Y-111324413D01*
X179663827Y-111302727D01*
X179691058Y-111280909D01*
X179717909Y-111258961D01*
X179735597Y-111244256D01*
X179757358Y-111263001D01*
X179779682Y-111281702D01*
X179802568Y-111300359D01*
X179826016Y-111318973D01*
X179850027Y-111337543D01*
X179874600Y-111356070D01*
X179899735Y-111374552D01*
X179925432Y-111392992D01*
X179951691Y-111411387D01*
X179978513Y-111429739D01*
X180005897Y-111448048D01*
X180033843Y-111466312D01*
X180062351Y-111484534D01*
X180091421Y-111502711D01*
X180121054Y-111520845D01*
X180151249Y-111538935D01*
X180182074Y-111556929D01*
X180213597Y-111574772D01*
X180245818Y-111592465D01*
X180278736Y-111610007D01*
X180312353Y-111627400D01*
X180346668Y-111644642D01*
X180381680Y-111661734D01*
X180417391Y-111678675D01*
X180453799Y-111695467D01*
X180490905Y-111712108D01*
X180528710Y-111728599D01*
X180567212Y-111744939D01*
X180606412Y-111761130D01*
X180646310Y-111777170D01*
X180686906Y-111793060D01*
X180728200Y-111808799D01*
X180728200Y-111280238D01*
X180726760Y-111251143D01*
X180722442Y-111225277D01*
X180713765Y-111199178D01*
X180701169Y-111177474D01*
X180687255Y-111162367D01*
X180665541Y-111145074D01*
X180644507Y-111131087D01*
X180621572Y-111118170D01*
X180596738Y-111106321D01*
X180585513Y-111101570D01*
X180561512Y-111091818D01*
X180537899Y-111082105D01*
X180514674Y-111072431D01*
X180486187Y-111060393D01*
X180458306Y-111048416D01*
X180431032Y-111036499D01*
X180404363Y-111024643D01*
X180378088Y-111012905D01*
X180351994Y-111000955D01*
X180326083Y-110988793D01*
X180300353Y-110976418D01*
X180274805Y-110963832D01*
X180249438Y-110951034D01*
X180239343Y-110945855D01*
X180214049Y-110932878D01*
X180188573Y-110919537D01*
X180162916Y-110905833D01*
X180137077Y-110891766D01*
X180111057Y-110877335D01*
X180084854Y-110862540D01*
X180074322Y-110856521D01*
X180047653Y-110841275D01*
X180025882Y-110828620D01*
X180003723Y-110815558D01*
X179981176Y-110802089D01*
X179958242Y-110788213D01*
X179934919Y-110773930D01*
X179911209Y-110759240D01*
X179893172Y-110747955D01*
X180728200Y-110747955D01*
X180728200Y-110283293D01*
X180726241Y-110252322D01*
X180720367Y-110225481D01*
X180707517Y-110197737D01*
X180688549Y-110176445D01*
X180663461Y-110161605D01*
X180638985Y-110154378D01*
X180610593Y-110151281D01*
X180602883Y-110151152D01*
X178147432Y-110151152D01*
X177784575Y-110151152D01*
X177784575Y-108793768D01*
X178862106Y-108793768D01*
X178862106Y-109136836D01*
X178863087Y-109164724D01*
X178866713Y-109193070D01*
X178874129Y-109219940D01*
X178886642Y-109243124D01*
X178890023Y-109247263D01*
X178910928Y-109265115D01*
X178934380Y-109278592D01*
X178959491Y-109289861D01*
X178983948Y-109299051D01*
X179011617Y-109308060D01*
X179112118Y-109336598D01*
X179090475Y-109350983D01*
X179069748Y-109365990D01*
X179049937Y-109381619D01*
X179031042Y-109397869D01*
X179007274Y-109420504D01*
X178985134Y-109444243D01*
X178964623Y-109469087D01*
X178945741Y-109495036D01*
X178928486Y-109522090D01*
X178912928Y-109550075D01*
X178899445Y-109578506D01*
X178888036Y-109607382D01*
X178878701Y-109636705D01*
X178871441Y-109666473D01*
X178866255Y-109696688D01*
X178863143Y-109727348D01*
X178862106Y-109758454D01*
X178863169Y-109783399D01*
X178867895Y-109812843D01*
X178876401Y-109837924D01*
X178892349Y-109863142D01*
X178914205Y-109881545D01*
X178941967Y-109893131D01*
X178968430Y-109897493D01*
X178983079Y-109898039D01*
X179381361Y-109898039D01*
X179378941Y-109872548D01*
X179378260Y-109851510D01*
X179378260Y-109825229D01*
X179378260Y-109801260D01*
X179378541Y-109772742D01*
X179379384Y-109744263D01*
X179380789Y-109715822D01*
X179382757Y-109687421D01*
X179385287Y-109659058D01*
X179388379Y-109630734D01*
X179392034Y-109602448D01*
X179396250Y-109574202D01*
X179401272Y-109546770D01*
X179407650Y-109520617D01*
X179415385Y-109495744D01*
X179424478Y-109472150D01*
X179437751Y-109444457D01*
X179453146Y-109418764D01*
X179470661Y-109395069D01*
X179474418Y-109390570D01*
X180728200Y-109390570D01*
X180728200Y-108925908D01*
X180726241Y-108894938D01*
X180720367Y-108868097D01*
X180707517Y-108840352D01*
X180688549Y-108819060D01*
X180663461Y-108804220D01*
X180638985Y-108796994D01*
X180610593Y-108793897D01*
X180602883Y-108793768D01*
X178862106Y-108793768D01*
X177784575Y-108793768D01*
X177784575Y-107655997D01*
X178822402Y-107655997D01*
X178822574Y-107681900D01*
X178823090Y-107707343D01*
X178823950Y-107732325D01*
X178826703Y-107780908D01*
X178830833Y-107827650D01*
X178836339Y-107872549D01*
X178843221Y-107915607D01*
X178851480Y-107956824D01*
X178861115Y-107996198D01*
X178872127Y-108033731D01*
X178884515Y-108069422D01*
X178898279Y-108103271D01*
X178913420Y-108135279D01*
X178929938Y-108165445D01*
X178947832Y-108193769D01*
X178967102Y-108220251D01*
X178987749Y-108244892D01*
X178998589Y-108256521D01*
X179021124Y-108278608D01*
X179044836Y-108299269D01*
X179069726Y-108318506D01*
X179095794Y-108336317D01*
X179123040Y-108352704D01*
X179151463Y-108367666D01*
X179181064Y-108381203D01*
X179211843Y-108393315D01*
X179243800Y-108404002D01*
X179276935Y-108413264D01*
X179311247Y-108421101D01*
X179346737Y-108427513D01*
X179383404Y-108432500D01*
X179421250Y-108436062D01*
X179460273Y-108438200D01*
X179500474Y-108438912D01*
X180728200Y-108438912D01*
X180728200Y-108095844D01*
X180727540Y-108070367D01*
X180725059Y-108043849D01*
X180722616Y-108029464D01*
X180713466Y-108004959D01*
X180698421Y-107984796D01*
X180678556Y-107969193D01*
X180656488Y-107956773D01*
X180648791Y-107953157D01*
X180625207Y-107943348D01*
X180600585Y-107934430D01*
X180575836Y-107926403D01*
X180570003Y-107924620D01*
X180506725Y-107902907D01*
X180526306Y-107884392D01*
X180545654Y-107864521D01*
X180564769Y-107843292D01*
X180583652Y-107820707D01*
X180602302Y-107796764D01*
X180620719Y-107771464D01*
X180638904Y-107744808D01*
X180652390Y-107723924D01*
X180656856Y-107716794D01*
X180669606Y-107694916D01*
X180681102Y-107672090D01*
X180691343Y-107648315D01*
X180700331Y-107623592D01*
X180708065Y-107597919D01*
X180714544Y-107571298D01*
X180719769Y-107543728D01*
X180723741Y-107515210D01*
X180726458Y-107485743D01*
X180727921Y-107455327D01*
X180728200Y-107434522D01*
X180727589Y-107402883D01*
X180725757Y-107372174D01*
X180722703Y-107342396D01*
X180718429Y-107313549D01*
X180712932Y-107285632D01*
X180706215Y-107258645D01*
X180698276Y-107232590D01*
X180689116Y-107207464D01*
X180678734Y-107183270D01*
X180667131Y-107160005D01*
X180654307Y-107137672D01*
X180640261Y-107116269D01*
X180624994Y-107095796D01*
X180608506Y-107076255D01*
X180590796Y-107057643D01*
X180571865Y-107039963D01*
X180551734Y-107023285D01*
X180530580Y-107007684D01*
X180508404Y-106993158D01*
X180485206Y-106979708D01*
X180460984Y-106967335D01*
X180435740Y-106956037D01*
X180409474Y-106945815D01*
X180382184Y-106936670D01*
X180353872Y-106928600D01*
X180324538Y-106921606D01*
X180294180Y-106915688D01*
X180262801Y-106910847D01*
X180230398Y-106907081D01*
X180196973Y-106904391D01*
X180162525Y-106902777D01*
X180127054Y-106902239D01*
X180090868Y-106902790D01*
X180056055Y-106904442D01*
X180022617Y-106907195D01*
X179990552Y-106911050D01*
X179959862Y-106916006D01*
X179930545Y-106922064D01*
X179902603Y-106929223D01*
X179876034Y-106937484D01*
X179850840Y-106946846D01*
X179827020Y-106957309D01*
X179811903Y-106964897D01*
X179790204Y-106977005D01*
X179762883Y-106994269D01*
X179737404Y-107012813D01*
X179713766Y-107032636D01*
X179691971Y-107053738D01*
X179672017Y-107076120D01*
X179653905Y-107099782D01*
X179637635Y-107124723D01*
X179633855Y-107131158D01*
X179619470Y-107157505D01*
X179606403Y-107184743D01*
X179594655Y-107212873D01*
X179584225Y-107241895D01*
X179575113Y-107271809D01*
X179567319Y-107302615D01*
X179560844Y-107334312D01*
X179555687Y-107366901D01*
X179552361Y-107391776D01*
X179549362Y-107416846D01*
X179546691Y-107442113D01*
X179544346Y-107467577D01*
X179542329Y-107493236D01*
X179540638Y-107519092D01*
X179539275Y-107545144D01*
X179538239Y-107571393D01*
X179537530Y-107597838D01*
X179537149Y-107624479D01*
X179537076Y-107642348D01*
X179537076Y-107856378D01*
X179537076Y-107860101D01*
X179444019Y-107860101D01*
X179415042Y-107858177D01*
X179389761Y-107852407D01*
X179364301Y-107840404D01*
X179344163Y-107822861D01*
X179329347Y-107799779D01*
X179322426Y-107781313D01*
X179315634Y-107754601D01*
X179309994Y-107723710D01*
X179306310Y-107695987D01*
X179303364Y-107665588D01*
X179301153Y-107632514D01*
X179299979Y-107605953D01*
X179299220Y-107577887D01*
X179298874Y-107548316D01*
X179298851Y-107538125D01*
X179298917Y-107510941D01*
X179299113Y-107484290D01*
X179299440Y-107458175D01*
X179299898Y-107432593D01*
X179300487Y-107407546D01*
X179301476Y-107374981D01*
X179302697Y-107343366D01*
X179304151Y-107312701D01*
X179305838Y-107282986D01*
X179306296Y-107275706D01*
X179307895Y-107248012D01*
X179309281Y-107222935D01*
X179310714Y-107195269D01*
X179311994Y-107167469D01*
X179312880Y-107142477D01*
X179313120Y-107127436D01*
X179311428Y-107099480D01*
X179305350Y-107072183D01*
X179293229Y-107047407D01*
X179277758Y-107030657D01*
X179256684Y-107016862D01*
X179231312Y-107006829D01*
X179206716Y-107002565D01*
X179195248Y-107002120D01*
X178943996Y-107002120D01*
X178933352Y-107028156D01*
X178922825Y-107056325D01*
X178912415Y-107086626D01*
X178904683Y-107110752D01*
X178897017Y-107136077D01*
X178889416Y-107162602D01*
X178881881Y-107190326D01*
X178874411Y-107219250D01*
X178867006Y-107249374D01*
X178862106Y-107270122D01*
X178855010Y-107302081D01*
X178848613Y-107334913D01*
X178842913Y-107368617D01*
X178837911Y-107403193D01*
X178833607Y-107438642D01*
X178830001Y-107474963D01*
X178827093Y-107512157D01*
X178825543Y-107537437D01*
X178824302Y-107563105D01*
X178823371Y-107589161D01*
X178822751Y-107615604D01*
X178822441Y-107642436D01*
X178822402Y-107655997D01*
X177784575Y-107655997D01*
X177784575Y-104975969D01*
X178266544Y-104975969D01*
X178266544Y-105461724D01*
X178268502Y-105492694D01*
X178274376Y-105519535D01*
X178287226Y-105547280D01*
X178306195Y-105568572D01*
X178331283Y-105583412D01*
X178355759Y-105590638D01*
X178384150Y-105593735D01*
X178391860Y-105593864D01*
X179223786Y-105593864D01*
X179197456Y-105615114D01*
X179170889Y-105636059D01*
X179144084Y-105656699D01*
X179117042Y-105677033D01*
X179089762Y-105697062D01*
X179062245Y-105716786D01*
X179034491Y-105736204D01*
X179006499Y-105755317D01*
X178978269Y-105774125D01*
X178949802Y-105792627D01*
X178921098Y-105810824D01*
X178892155Y-105828716D01*
X178862976Y-105846302D01*
X178833559Y-105863583D01*
X178803904Y-105880558D01*
X178774012Y-105897228D01*
X178743822Y-105913751D01*
X178713429Y-105930128D01*
X178682832Y-105946359D01*
X178652031Y-105962446D01*
X178621027Y-105978386D01*
X178589819Y-105994182D01*
X178558407Y-106009832D01*
X178526792Y-106025336D01*
X178494974Y-106040695D01*
X178462952Y-106055909D01*
X178430726Y-106070978D01*
X178398297Y-106085900D01*
X178365664Y-106100678D01*
X178332828Y-106115310D01*
X178299788Y-106129797D01*
X178266544Y-106144138D01*
X178266544Y-106641060D01*
X178268802Y-106667609D01*
X178276605Y-106693078D01*
X178289982Y-106714306D01*
X178295082Y-106719848D01*
X178316827Y-106736095D01*
X178340285Y-106745013D01*
X178367257Y-106748358D01*
X178370147Y-106748385D01*
X178395474Y-106746604D01*
X178421512Y-106741261D01*
X178429083Y-106739080D01*
X178454732Y-106729774D01*
X178478319Y-106719131D01*
X178502417Y-106707033D01*
X178512213Y-106701857D01*
X178540916Y-106687356D01*
X178569947Y-106672389D01*
X178591937Y-106660859D01*
X178614113Y-106649067D01*
X178636474Y-106637013D01*
X178659020Y-106624698D01*
X178681751Y-106612121D01*
X178704668Y-106599282D01*
X178727771Y-106586181D01*
X178751059Y-106572819D01*
X178774406Y-106559344D01*
X178797689Y-106545672D01*
X178820905Y-106531805D01*
X178844057Y-106517741D01*
X178867143Y-106503481D01*
X178890164Y-106489024D01*
X178913119Y-106474372D01*
X178936008Y-106459522D01*
X178958833Y-106444477D01*
X178981592Y-106429235D01*
X178996728Y-106418965D01*
X179019350Y-106403546D01*
X179041853Y-106387995D01*
X179064236Y-106372313D01*
X179086498Y-106356501D01*
X179108641Y-106340558D01*
X179130664Y-106324484D01*
X179152567Y-106308279D01*
X179174349Y-106291943D01*
X179196012Y-106275477D01*
X179217555Y-106258879D01*
X179231851Y-106247741D01*
X179252952Y-106230991D01*
X179273682Y-106214241D01*
X179294042Y-106197491D01*
X179314031Y-106180741D01*
X179333649Y-106163990D01*
X179352897Y-106147240D01*
X179371773Y-106130490D01*
X179390279Y-106113740D01*
X179414377Y-106091406D01*
X179437816Y-106069073D01*
X179461331Y-106091713D01*
X179485347Y-106114038D01*
X179509865Y-106136046D01*
X179534885Y-106157738D01*
X179560407Y-106179114D01*
X179586430Y-106200173D01*
X179612955Y-106220917D01*
X179639981Y-106241344D01*
X179667509Y-106261454D01*
X179695539Y-106281249D01*
X179714504Y-106294270D01*
X179743133Y-106313570D01*
X179772024Y-106332619D01*
X179801177Y-106351418D01*
X179830592Y-106369965D01*
X179860268Y-106388262D01*
X179890206Y-106406308D01*
X179920406Y-106424103D01*
X179950867Y-106441648D01*
X179981591Y-106458941D01*
X180012575Y-106475984D01*
X180033377Y-106487207D01*
X180064760Y-106503848D01*
X180096329Y-106520271D01*
X180128082Y-106536476D01*
X180160022Y-106552463D01*
X180192146Y-106568231D01*
X180224456Y-106583782D01*
X180256951Y-106599114D01*
X180289632Y-106614229D01*
X180322498Y-106629125D01*
X180355549Y-106643803D01*
X180377687Y-106653468D01*
X180410811Y-106667782D01*
X180443880Y-106681879D01*
X180476895Y-106695758D01*
X180509856Y-106709418D01*
X180542762Y-106722860D01*
X180575613Y-106736084D01*
X180608410Y-106749091D01*
X180641153Y-106761879D01*
X180673841Y-106774449D01*
X180706474Y-106786800D01*
X180728200Y-106794914D01*
X180728200Y-106208658D01*
X180725914Y-106180676D01*
X180719056Y-106155901D01*
X180705621Y-106131513D01*
X180686215Y-106111312D01*
X180680430Y-106106916D01*
X180658666Y-106092433D01*
X180635715Y-106078841D01*
X180611576Y-106066140D01*
X180586250Y-106054329D01*
X180571244Y-106047980D01*
X180544876Y-106036777D01*
X180521003Y-106026674D01*
X180495403Y-106015875D01*
X180468077Y-106004380D01*
X180444973Y-105994681D01*
X180420763Y-105984537D01*
X180401881Y-105976637D01*
X180376126Y-105965702D01*
X180350041Y-105954303D01*
X180323627Y-105942438D01*
X180296883Y-105930108D01*
X180269809Y-105917313D01*
X180242406Y-105904053D01*
X180214673Y-105890327D01*
X180186611Y-105876136D01*
X180158306Y-105861644D01*
X180129846Y-105846706D01*
X180101231Y-105831323D01*
X180072461Y-105815494D01*
X180050782Y-105803329D01*
X180029015Y-105790914D01*
X180007162Y-105778248D01*
X179985221Y-105765330D01*
X179963192Y-105752163D01*
X179955830Y-105747718D01*
X179933722Y-105734243D01*
X179911832Y-105720571D01*
X179890160Y-105706704D01*
X179868706Y-105692640D01*
X179847470Y-105678380D01*
X179826453Y-105663923D01*
X179805653Y-105649270D01*
X179785072Y-105634421D01*
X179764708Y-105619376D01*
X179744563Y-105604134D01*
X179731254Y-105593864D01*
X180728200Y-105593864D01*
X180728200Y-105108109D01*
X180726241Y-105077139D01*
X180720367Y-105050298D01*
X180707517Y-105022553D01*
X180688549Y-105001261D01*
X180663461Y-104986421D01*
X180638985Y-104979195D01*
X180610593Y-104976098D01*
X180602883Y-104975969D01*
X178266544Y-104975969D01*
X177784575Y-104975969D01*
X177784575Y-103423166D01*
X178822402Y-103423166D01*
X178823019Y-103453967D01*
X178824869Y-103483790D01*
X178827953Y-103512636D01*
X178832270Y-103540504D01*
X178837820Y-103567394D01*
X178844605Y-103593306D01*
X178852622Y-103618241D01*
X178861873Y-103642197D01*
X178872358Y-103665176D01*
X178884076Y-103687177D01*
X178911213Y-103728246D01*
X178943283Y-103765403D01*
X178980288Y-103798649D01*
X179000640Y-103813805D01*
X179022226Y-103827983D01*
X179045046Y-103841184D01*
X179069099Y-103853407D01*
X179094385Y-103864652D01*
X179120905Y-103874919D01*
X179148658Y-103884208D01*
X179177645Y-103892519D01*
X179207866Y-103899853D01*
X179239319Y-103906209D01*
X179272007Y-103911587D01*
X179305927Y-103915987D01*
X179341082Y-103919409D01*
X179377470Y-103921854D01*
X179415091Y-103923321D01*
X179453945Y-103923810D01*
X180728200Y-103923810D01*
X180728200Y-103459147D01*
X180726241Y-103428177D01*
X180720367Y-103401336D01*
X180707517Y-103373592D01*
X180688549Y-103352300D01*
X180663461Y-103337460D01*
X180638985Y-103330233D01*
X180610593Y-103327136D01*
X180602883Y-103327007D01*
X179520946Y-103327007D01*
X179493047Y-103326174D01*
X179467511Y-103323675D01*
X179439987Y-103318477D01*
X179415865Y-103310880D01*
X179392023Y-103298984D01*
X179383223Y-103292886D01*
X179363681Y-103272414D01*
X179351162Y-103248394D01*
X179343833Y-103223269D01*
X179339646Y-103193956D01*
X179338555Y-103166330D01*
X179339564Y-103141088D01*
X179342588Y-103115614D01*
X179347628Y-103089907D01*
X179354685Y-103063967D01*
X179363952Y-103038765D01*
X179375623Y-103014647D01*
X179389698Y-102991616D01*
X179406176Y-102969670D01*
X180728200Y-102969670D01*
X180728200Y-102505008D01*
X180726241Y-102474037D01*
X180720367Y-102447197D01*
X180707517Y-102419452D01*
X180688549Y-102398160D01*
X180663461Y-102383320D01*
X180638985Y-102376094D01*
X180610593Y-102372997D01*
X180602883Y-102372868D01*
X179520946Y-102372868D01*
X179493047Y-102372035D01*
X179467511Y-102369536D01*
X179439987Y-102364337D01*
X179415865Y-102356740D01*
X179392023Y-102344845D01*
X179383223Y-102338747D01*
X179363681Y-102318274D01*
X179351162Y-102294254D01*
X179343833Y-102269129D01*
X179339646Y-102239816D01*
X179338555Y-102212190D01*
X179339564Y-102186948D01*
X179342588Y-102161474D01*
X179347628Y-102135767D01*
X179354685Y-102109828D01*
X179363952Y-102084625D01*
X179375623Y-102060508D01*
X179389698Y-102037476D01*
X179406176Y-102015531D01*
X180728200Y-102015531D01*
X180728200Y-101550868D01*
X180726232Y-101519898D01*
X180720328Y-101493057D01*
X180707415Y-101465313D01*
X180688352Y-101444021D01*
X180663141Y-101429181D01*
X180638544Y-101421954D01*
X180610011Y-101418857D01*
X180602263Y-101418728D01*
X178862106Y-101418728D01*
X178862106Y-101761796D01*
X178863066Y-101790695D01*
X178865945Y-101815973D01*
X178871729Y-101840888D01*
X178883005Y-101865680D01*
X178889403Y-101874085D01*
X178909762Y-101891037D01*
X178932519Y-101904018D01*
X178956844Y-101915003D01*
X178980514Y-101924057D01*
X179007274Y-101933020D01*
X179072414Y-101954734D01*
X179047632Y-101978165D01*
X179024235Y-102001465D01*
X179002223Y-102024635D01*
X178981596Y-102047674D01*
X178962354Y-102070582D01*
X178944497Y-102093359D01*
X178928025Y-102116005D01*
X178912938Y-102138520D01*
X178899236Y-102160905D01*
X178886919Y-102183158D01*
X178879477Y-102197921D01*
X178866100Y-102228000D01*
X178857237Y-102251360D01*
X178849379Y-102275408D01*
X178842523Y-102300142D01*
X178836671Y-102325564D01*
X178831821Y-102351672D01*
X178827976Y-102378468D01*
X178825133Y-102405951D01*
X178823294Y-102434120D01*
X178822458Y-102462977D01*
X178822402Y-102472748D01*
X178822920Y-102500533D01*
X178824474Y-102527586D01*
X178827064Y-102553909D01*
X178830690Y-102579502D01*
X178835352Y-102604363D01*
X178843179Y-102636376D01*
X178852848Y-102667089D01*
X178864359Y-102696504D01*
X178877712Y-102724619D01*
X178881338Y-102731445D01*
X178897215Y-102757986D01*
X178915381Y-102783014D01*
X178935834Y-102806530D01*
X178958575Y-102828534D01*
X178983603Y-102849026D01*
X179003875Y-102863403D01*
X179025435Y-102876929D01*
X179048281Y-102889604D01*
X179072414Y-102901429D01*
X179050122Y-102921072D01*
X179028844Y-102941152D01*
X179008581Y-102961668D01*
X178989332Y-102982620D01*
X178971097Y-103004009D01*
X178953876Y-103025834D01*
X178937669Y-103048094D01*
X178922476Y-103070792D01*
X178908298Y-103093925D01*
X178895134Y-103117494D01*
X178886921Y-103133450D01*
X178875391Y-103157922D01*
X178864995Y-103182951D01*
X178855733Y-103208536D01*
X178847605Y-103234678D01*
X178840611Y-103261375D01*
X178834751Y-103288629D01*
X178830026Y-103316438D01*
X178826434Y-103344804D01*
X178823977Y-103373726D01*
X178822654Y-103403204D01*
X178822402Y-103423166D01*
X177784575Y-103423166D01*
X177784575Y-100280957D01*
X178822402Y-100280957D01*
X178822574Y-100306860D01*
X178823090Y-100332303D01*
X178823950Y-100357285D01*
X178826703Y-100405868D01*
X178830833Y-100452610D01*
X178836339Y-100497510D01*
X178843221Y-100540568D01*
X178851480Y-100581784D01*
X178861115Y-100621159D01*
X178872127Y-100658691D01*
X178884515Y-100694382D01*
X178898279Y-100728232D01*
X178913420Y-100760239D01*
X178929938Y-100790405D01*
X178947832Y-100818729D01*
X178967102Y-100845211D01*
X178987749Y-100869852D01*
X178998589Y-100881482D01*
X179021124Y-100903568D01*
X179044836Y-100924230D01*
X179069726Y-100943466D01*
X179095794Y-100961278D01*
X179123040Y-100977664D01*
X179151463Y-100992626D01*
X179181064Y-101006163D01*
X179211843Y-101018275D01*
X179243800Y-101028962D01*
X179276935Y-101038224D01*
X179311247Y-101046061D01*
X179346737Y-101052473D01*
X179383404Y-101057460D01*
X179421250Y-101061023D01*
X179460273Y-101063160D01*
X179500474Y-101063872D01*
X180728200Y-101063872D01*
X180728200Y-100720804D01*
X180727540Y-100695327D01*
X180725059Y-100668809D01*
X180722616Y-100654424D01*
X180713466Y-100629919D01*
X180698421Y-100609757D01*
X180678556Y-100594153D01*
X180656488Y-100581733D01*
X180648791Y-100578117D01*
X180625207Y-100568308D01*
X180600585Y-100559390D01*
X180575836Y-100551364D01*
X180570003Y-100549580D01*
X180506725Y-100527867D01*
X180526306Y-100509353D01*
X180545654Y-100489481D01*
X180564769Y-100468253D01*
X180583652Y-100445667D01*
X180602302Y-100421724D01*
X180620719Y-100396425D01*
X180638904Y-100369768D01*
X180652390Y-100348885D01*
X180656856Y-100341754D01*
X180669606Y-100319876D01*
X180681102Y-100297050D01*
X180691343Y-100273276D01*
X180700331Y-100248552D01*
X180708065Y-100222880D01*
X180714544Y-100196259D01*
X180719769Y-100168689D01*
X180723741Y-100140170D01*
X180726458Y-100110703D01*
X180727921Y-100080287D01*
X180728200Y-100059482D01*
X180727589Y-100027843D01*
X180725757Y-99997135D01*
X180722703Y-99967356D01*
X180718429Y-99938509D01*
X180712932Y-99910592D01*
X180706215Y-99883606D01*
X180698276Y-99857550D01*
X180689116Y-99832424D01*
X180678734Y-99808230D01*
X180667131Y-99784966D01*
X180654307Y-99762632D01*
X180640261Y-99741229D01*
X180624994Y-99720757D01*
X180608506Y-99701215D01*
X180590796Y-99682603D01*
X180571865Y-99664923D01*
X180551734Y-99648245D01*
X180530580Y-99632644D01*
X180508404Y-99618118D01*
X180485206Y-99604669D01*
X180460984Y-99592295D01*
X180435740Y-99580997D01*
X180409474Y-99570776D01*
X180382184Y-99561630D01*
X180353872Y-99553560D01*
X180324538Y-99546566D01*
X180294180Y-99540649D01*
X180262801Y-99535807D01*
X180230398Y-99532041D01*
X180196973Y-99529351D01*
X180162525Y-99527737D01*
X180127054Y-99527199D01*
X180090868Y-99527750D01*
X180056055Y-99529402D01*
X180022617Y-99532155D01*
X179990552Y-99536010D01*
X179959862Y-99540967D01*
X179930545Y-99547024D01*
X179902603Y-99554184D01*
X179876034Y-99562444D01*
X179850840Y-99571806D01*
X179827020Y-99582270D01*
X179811903Y-99589857D01*
X179790204Y-99601965D01*
X179762883Y-99619229D01*
X179737404Y-99637773D01*
X179713766Y-99657596D01*
X179691971Y-99678698D01*
X179672017Y-99701080D01*
X179653905Y-99724742D01*
X179637635Y-99749683D01*
X179633855Y-99756118D01*
X179619470Y-99782465D01*
X179606403Y-99809703D01*
X179594655Y-99837833D01*
X179584225Y-99866855D01*
X179575113Y-99896769D01*
X179567319Y-99927575D01*
X179560844Y-99959272D01*
X179555687Y-99991861D01*
X179552361Y-100016736D01*
X179549362Y-100041807D01*
X179546691Y-100067074D01*
X179544346Y-100092537D01*
X179542329Y-100118196D01*
X179540638Y-100144052D01*
X179539275Y-100170105D01*
X179538239Y-100196353D01*
X179537530Y-100222798D01*
X179537149Y-100249439D01*
X179537076Y-100267309D01*
X179537076Y-100481339D01*
X179537076Y-100485061D01*
X179444019Y-100485061D01*
X179415042Y-100483137D01*
X179389761Y-100477367D01*
X179364301Y-100465364D01*
X179344163Y-100447821D01*
X179329347Y-100424739D01*
X179322426Y-100406273D01*
X179315634Y-100379562D01*
X179309994Y-100348670D01*
X179306310Y-100320947D01*
X179303364Y-100290549D01*
X179301153Y-100257475D01*
X179299979Y-100230914D01*
X179299220Y-100202848D01*
X179298874Y-100173277D01*
X179298851Y-100163085D01*
X179298917Y-100135901D01*
X179299113Y-100109251D01*
X179299440Y-100083135D01*
X179299898Y-100057553D01*
X179300487Y-100032506D01*
X179301476Y-99999941D01*
X179302697Y-99968326D01*
X179304151Y-99937661D01*
X179305838Y-99907946D01*
X179306296Y-99900666D01*
X179307895Y-99872972D01*
X179309281Y-99847895D01*
X179310714Y-99820230D01*
X179311994Y-99792429D01*
X179312880Y-99767438D01*
X179313120Y-99752396D01*
X179311428Y-99724440D01*
X179305350Y-99697144D01*
X179293229Y-99672367D01*
X179277758Y-99655617D01*
X179256684Y-99641822D01*
X179231312Y-99631790D01*
X179206716Y-99627526D01*
X179195248Y-99627080D01*
X178943996Y-99627080D01*
X178933352Y-99653116D01*
X178922825Y-99681285D01*
X178912415Y-99711587D01*
X178904683Y-99735712D01*
X178897017Y-99761038D01*
X178889416Y-99787562D01*
X178881881Y-99815287D01*
X178874411Y-99844210D01*
X178867006Y-99874334D01*
X178862106Y-99895083D01*
X178855010Y-99927042D01*
X178848613Y-99959873D01*
X178842913Y-99993577D01*
X178837911Y-100028153D01*
X178833607Y-100063602D01*
X178830001Y-100099923D01*
X178827093Y-100137117D01*
X178825543Y-100162397D01*
X178824302Y-100188065D01*
X178823371Y-100214121D01*
X178822751Y-100240565D01*
X178822441Y-100267396D01*
X178822402Y-100280957D01*
X177784575Y-100280957D01*
X177784575Y-97654281D01*
X178147432Y-97654281D01*
X178147432Y-98118944D01*
X178149390Y-98149914D01*
X178155264Y-98176755D01*
X178168114Y-98204499D01*
X178187083Y-98225791D01*
X178212170Y-98240631D01*
X178236646Y-98247858D01*
X178265038Y-98250955D01*
X178272748Y-98251084D01*
X179033330Y-98251084D01*
X179007788Y-98275494D01*
X178983894Y-98300491D01*
X178961647Y-98326074D01*
X178941049Y-98352244D01*
X178922098Y-98379000D01*
X178904796Y-98406343D01*
X178889141Y-98434272D01*
X178875134Y-98462788D01*
X178862775Y-98491890D01*
X178852064Y-98521578D01*
X178843000Y-98551853D01*
X178835585Y-98582714D01*
X178829817Y-98614162D01*
X178825698Y-98646196D01*
X178823226Y-98678817D01*
X178822402Y-98712024D01*
X178823019Y-98743436D01*
X178824869Y-98773851D01*
X178827953Y-98803268D01*
X178832270Y-98831689D01*
X178837820Y-98859112D01*
X178844605Y-98885538D01*
X178852622Y-98910967D01*
X178861873Y-98935398D01*
X178872358Y-98958833D01*
X178884076Y-98981270D01*
X178897028Y-99002710D01*
X178911213Y-99023153D01*
X178926631Y-99042598D01*
X178943283Y-99061046D01*
X178961169Y-99078498D01*
X178980288Y-99094952D01*
X179000640Y-99110408D01*
X179022226Y-99124868D01*
X179045046Y-99138330D01*
X179069099Y-99150795D01*
X179094385Y-99162263D01*
X179120905Y-99172734D01*
X179148658Y-99182207D01*
X179177645Y-99190683D01*
X179207866Y-99198162D01*
X179239319Y-99204644D01*
X179272007Y-99210129D01*
X179305927Y-99214616D01*
X179341082Y-99218107D01*
X179377470Y-99220600D01*
X179415091Y-99222095D01*
X179453945Y-99222594D01*
X180728200Y-99222594D01*
X180728200Y-98758552D01*
X180726241Y-98727436D01*
X180720367Y-98700469D01*
X180710577Y-98677651D01*
X180692832Y-98654963D01*
X180668968Y-98638756D01*
X180645471Y-98630459D01*
X180618058Y-98626310D01*
X180602883Y-98625792D01*
X179520946Y-98625792D01*
X179493047Y-98624913D01*
X179467511Y-98622278D01*
X179439987Y-98616796D01*
X179415865Y-98608784D01*
X179392023Y-98596240D01*
X179383223Y-98589810D01*
X179365818Y-98571430D01*
X179352688Y-98547231D01*
X179344837Y-98521859D01*
X179340126Y-98492212D01*
X179338599Y-98464240D01*
X179338555Y-98458290D01*
X179339680Y-98431110D01*
X179343053Y-98403542D01*
X179347850Y-98379101D01*
X179354368Y-98354365D01*
X179356546Y-98347242D01*
X179365278Y-98323133D01*
X179377366Y-98297688D01*
X179391702Y-98274492D01*
X179408288Y-98253544D01*
X179410519Y-98251084D01*
X180728200Y-98251084D01*
X180728200Y-97786422D01*
X180726241Y-97755451D01*
X180720367Y-97728610D01*
X180707517Y-97700866D01*
X180688549Y-97679574D01*
X180663461Y-97664734D01*
X180638985Y-97657508D01*
X180610593Y-97654410D01*
X180602883Y-97654281D01*
X178147432Y-97654281D01*
X177784575Y-97654281D01*
X177784575Y-96520233D01*
X178822402Y-96520233D01*
X178822613Y-96547207D01*
X178823245Y-96573692D01*
X178824299Y-96599687D01*
X178825775Y-96625193D01*
X178827673Y-96650209D01*
X178831309Y-96686815D01*
X178835895Y-96722320D01*
X178841429Y-96756724D01*
X178847912Y-96790026D01*
X178855344Y-96822227D01*
X178863725Y-96853326D01*
X178873054Y-96883324D01*
X178876375Y-96893079D01*
X178886945Y-96921768D01*
X178898650Y-96949444D01*
X178911489Y-96976105D01*
X178925462Y-97001752D01*
X178940569Y-97026384D01*
X178956810Y-97050003D01*
X178974186Y-97072607D01*
X178992695Y-97094197D01*
X179012339Y-97114774D01*
X179033117Y-97134335D01*
X179047599Y-97146813D01*
X179070283Y-97164834D01*
X179094134Y-97181906D01*
X179119152Y-97198029D01*
X179145337Y-97213203D01*
X179172689Y-97227429D01*
X179201207Y-97240706D01*
X179230893Y-97253034D01*
X179261745Y-97264413D01*
X179293764Y-97274844D01*
X179326950Y-97284326D01*
X179349722Y-97290120D01*
X179384946Y-97298103D01*
X179421521Y-97305300D01*
X179446656Y-97309662D01*
X179472392Y-97313675D01*
X179498729Y-97317339D01*
X179525667Y-97320654D01*
X179553206Y-97323621D01*
X179581346Y-97326238D01*
X179610087Y-97328506D01*
X179639428Y-97330425D01*
X179669371Y-97331996D01*
X179699915Y-97333217D01*
X179731060Y-97334089D01*
X179762806Y-97334613D01*
X179795153Y-97334787D01*
X179827049Y-97334613D01*
X179858373Y-97334089D01*
X179889125Y-97333217D01*
X179919306Y-97331996D01*
X179948914Y-97330425D01*
X179977951Y-97328506D01*
X180006415Y-97326238D01*
X180034308Y-97323621D01*
X180061629Y-97320654D01*
X180088378Y-97317339D01*
X180114555Y-97313675D01*
X180140160Y-97309662D01*
X180165193Y-97305300D01*
X180189654Y-97300589D01*
X180225274Y-97292868D01*
X180236861Y-97290120D01*
X180270825Y-97281271D01*
X180303622Y-97271473D01*
X180335252Y-97260726D01*
X180365715Y-97249030D01*
X180395012Y-97236386D01*
X180423141Y-97222792D01*
X180450104Y-97208250D01*
X180475900Y-97192760D01*
X180500529Y-97176320D01*
X180523991Y-97158932D01*
X180538985Y-97146813D01*
X180560540Y-97127927D01*
X180581005Y-97108028D01*
X180600380Y-97087113D01*
X180618664Y-97065185D01*
X180635858Y-97042243D01*
X180651961Y-97018286D01*
X180666974Y-96993315D01*
X180680896Y-96967330D01*
X180693727Y-96940331D01*
X180705469Y-96912318D01*
X180712690Y-96893079D01*
X180722557Y-96863448D01*
X180731454Y-96832716D01*
X180739380Y-96800882D01*
X180746336Y-96767947D01*
X180752321Y-96733911D01*
X180757335Y-96698773D01*
X180761379Y-96662533D01*
X180763536Y-96637762D01*
X180765262Y-96612501D01*
X180766556Y-96586750D01*
X180767418Y-96560510D01*
X180767850Y-96533781D01*
X180767904Y-96520233D01*
X180767688Y-96493181D01*
X180767041Y-96466618D01*
X180765963Y-96440546D01*
X180764453Y-96414962D01*
X180762512Y-96389869D01*
X180758791Y-96353146D01*
X180754100Y-96317524D01*
X180748439Y-96283004D01*
X180741807Y-96249586D01*
X180734204Y-96217269D01*
X180725631Y-96186053D01*
X180716087Y-96155939D01*
X180712690Y-96146145D01*
X180701676Y-96117561D01*
X180689571Y-96089970D01*
X180676376Y-96063370D01*
X180662091Y-96037764D01*
X180646714Y-96013149D01*
X180630248Y-95989527D01*
X180612691Y-95966897D01*
X180594043Y-95945260D01*
X180574305Y-95924614D01*
X180553476Y-95904962D01*
X180538985Y-95892411D01*
X180516300Y-95874501D01*
X180492449Y-95857530D01*
X180467431Y-95841495D01*
X180441246Y-95826399D01*
X180413894Y-95812241D01*
X180385376Y-95799020D01*
X180355690Y-95786738D01*
X180324838Y-95775393D01*
X180292819Y-95764986D01*
X180259633Y-95755516D01*
X180236861Y-95749725D01*
X180201670Y-95741742D01*
X180165193Y-95734545D01*
X180140160Y-95730183D01*
X180114555Y-95726170D01*
X180088378Y-95722506D01*
X180061629Y-95719190D01*
X180034308Y-95716224D01*
X180006415Y-95713607D01*
X179977951Y-95711339D01*
X179948914Y-95709419D01*
X179919306Y-95707849D01*
X179889125Y-95706628D01*
X179858373Y-95705755D01*
X179827049Y-95705232D01*
X179795153Y-95705057D01*
X179762806Y-95705232D01*
X179731060Y-95705755D01*
X179699915Y-95706628D01*
X179669371Y-95707849D01*
X179639428Y-95709419D01*
X179610087Y-95711339D01*
X179581346Y-95713607D01*
X179553206Y-95716224D01*
X179525667Y-95719190D01*
X179498729Y-95722506D01*
X179472392Y-95726170D01*
X179446656Y-95730183D01*
X179421521Y-95734545D01*
X179396987Y-95739256D01*
X179361313Y-95746976D01*
X179349722Y-95749725D01*
X179315758Y-95758569D01*
X179282961Y-95768350D01*
X179251331Y-95779070D01*
X179220868Y-95790728D01*
X179191572Y-95803323D01*
X179163442Y-95816856D01*
X179136479Y-95831327D01*
X179110683Y-95846736D01*
X179086054Y-95863083D01*
X179062592Y-95880367D01*
X179047599Y-95892411D01*
X179026065Y-95911402D01*
X179005665Y-95931386D01*
X178986399Y-95952362D01*
X178968268Y-95974330D01*
X178951271Y-95997291D01*
X178935407Y-96021244D01*
X178920678Y-96046189D01*
X178907083Y-96072127D01*
X178894622Y-96099057D01*
X178883296Y-96126979D01*
X178876375Y-96146145D01*
X178866729Y-96175893D01*
X178858032Y-96206741D01*
X178850284Y-96238691D01*
X178843485Y-96271743D01*
X178837634Y-96305895D01*
X178832733Y-96341150D01*
X178828780Y-96377505D01*
X178826671Y-96402354D01*
X178824985Y-96427693D01*
X178823720Y-96453521D01*
X178822876Y-96479838D01*
X178822455Y-96506645D01*
X178822402Y-96520233D01*
X177784575Y-96520233D01*
X177784575Y-94718658D01*
X178226840Y-94718658D01*
X178227047Y-94751590D01*
X178227669Y-94783616D01*
X178228705Y-94814737D01*
X178230155Y-94844953D01*
X178232020Y-94874264D01*
X178234299Y-94902670D01*
X178236993Y-94930171D01*
X178240101Y-94956767D01*
X178243623Y-94982457D01*
X178247560Y-95007243D01*
X178250414Y-95023263D01*
X178256395Y-95054185D01*
X178262551Y-95083362D01*
X178268880Y-95110795D01*
X178275385Y-95136482D01*
X178282063Y-95160425D01*
X178290657Y-95187899D01*
X178299524Y-95212648D01*
X178303146Y-95221784D01*
X178315918Y-95248986D01*
X178329416Y-95272432D01*
X178346573Y-95295609D01*
X178364777Y-95313377D01*
X178387338Y-95327270D01*
X178397444Y-95330970D01*
X178424508Y-95338027D01*
X178451106Y-95343068D01*
X178477240Y-95346092D01*
X178502908Y-95347100D01*
X178764707Y-95347100D01*
X178763513Y-95321934D01*
X178762001Y-95292853D01*
X178760402Y-95264995D01*
X178758715Y-95238357D01*
X178756941Y-95212941D01*
X178756022Y-95200691D01*
X178753757Y-95172642D01*
X178751849Y-95144949D01*
X178750296Y-95117613D01*
X178749100Y-95090632D01*
X178748577Y-95075375D01*
X178747763Y-95049018D01*
X178746949Y-95022602D01*
X178746134Y-94996126D01*
X178745320Y-94969591D01*
X178744855Y-94954401D01*
X178744130Y-94927298D01*
X178743583Y-94899185D01*
X178743255Y-94874286D01*
X178743059Y-94848644D01*
X178742994Y-94822261D01*
X178743207Y-94795149D01*
X178743847Y-94769335D01*
X178745246Y-94738895D01*
X178747312Y-94710484D01*
X178750044Y-94684103D01*
X178754203Y-94655125D01*
X178756642Y-94641732D01*
X178762131Y-94616723D01*
X178769472Y-94590192D01*
X178777822Y-94566511D01*
X178788601Y-94542937D01*
X178794485Y-94532545D01*
X178810612Y-94510541D01*
X178829527Y-94493384D01*
X178851228Y-94481073D01*
X178855902Y-94479193D01*
X178880221Y-94471668D01*
X178905872Y-94466931D01*
X178932856Y-94464980D01*
X178938412Y-94464924D01*
X178965849Y-94465906D01*
X178990931Y-94468850D01*
X179016037Y-94474424D01*
X179025265Y-94477332D01*
X179049416Y-94488794D01*
X179070354Y-94504304D01*
X179088369Y-94522406D01*
X179092266Y-94526962D01*
X179107969Y-94548093D01*
X179122028Y-94570209D01*
X179134314Y-94591860D01*
X179146818Y-94615996D01*
X179157405Y-94638009D01*
X179168492Y-94662158D01*
X179180427Y-94688851D01*
X179190586Y-94712038D01*
X179201287Y-94736853D01*
X179212532Y-94763296D01*
X179224319Y-94791368D01*
X179236649Y-94821069D01*
X179243017Y-94836530D01*
X179256251Y-94866897D01*
X179269429Y-94896348D01*
X179282554Y-94924883D01*
X179295623Y-94952502D01*
X179308639Y-94979204D01*
X179321599Y-95004991D01*
X179334505Y-95029862D01*
X179347357Y-95053817D01*
X179360154Y-95076856D01*
X179372897Y-95098978D01*
X179381361Y-95113218D01*
X179398393Y-95140767D01*
X179415986Y-95166958D01*
X179434142Y-95191793D01*
X179452860Y-95215270D01*
X179472140Y-95237390D01*
X179491982Y-95258153D01*
X179512387Y-95277560D01*
X179533354Y-95295609D01*
X179555048Y-95312369D01*
X179577633Y-95327907D01*
X179601111Y-95342224D01*
X179625480Y-95355320D01*
X179650741Y-95367194D01*
X179676893Y-95377847D01*
X179703938Y-95387279D01*
X179731874Y-95395489D01*
X179760819Y-95402614D01*
X179791198Y-95408789D01*
X179823012Y-95414013D01*
X179847813Y-95417309D01*
X179873422Y-95420069D01*
X179899838Y-95422296D01*
X179927060Y-95423988D01*
X179955090Y-95425146D01*
X179983927Y-95425769D01*
X180003599Y-95425888D01*
X180028574Y-95425706D01*
X180065183Y-95424752D01*
X180100766Y-95422980D01*
X180135324Y-95420390D01*
X180168857Y-95416982D01*
X180201365Y-95412756D01*
X180232848Y-95407713D01*
X180263306Y-95401851D01*
X180292739Y-95395172D01*
X180321146Y-95387675D01*
X180348529Y-95379360D01*
X180374963Y-95370150D01*
X180400524Y-95359970D01*
X180425213Y-95348820D01*
X180449030Y-95336699D01*
X180471974Y-95323607D01*
X180494046Y-95309545D01*
X180515245Y-95294513D01*
X180535572Y-95278510D01*
X180555027Y-95261536D01*
X180573609Y-95243592D01*
X180585513Y-95231090D01*
X180602646Y-95211489D01*
X180618919Y-95190843D01*
X180634329Y-95169149D01*
X180648879Y-95146408D01*
X180662566Y-95122621D01*
X180675392Y-95097786D01*
X180687357Y-95071905D01*
X180698460Y-95044976D01*
X180708702Y-95017001D01*
X180718082Y-94987979D01*
X180723857Y-94968050D01*
X180731728Y-94937296D01*
X180738826Y-94905287D01*
X180745149Y-94872025D01*
X180750698Y-94837509D01*
X180755472Y-94801738D01*
X180759473Y-94764714D01*
X180761710Y-94739334D01*
X180763602Y-94713397D01*
X180765151Y-94686903D01*
X180766355Y-94659851D01*
X180767215Y-94632242D01*
X180767732Y-94604075D01*
X180767904Y-94575351D01*
X180767729Y-94543432D01*
X180767206Y-94511884D01*
X180766333Y-94480706D01*
X180765112Y-94449899D01*
X180763542Y-94419463D01*
X180761622Y-94389398D01*
X180759354Y-94359704D01*
X180756737Y-94330380D01*
X180753771Y-94301427D01*
X180750456Y-94272845D01*
X180748052Y-94253996D01*
X180744331Y-94226441D01*
X180740382Y-94200074D01*
X180736203Y-94174896D01*
X180730276Y-94143175D01*
X180723941Y-94113566D01*
X180717199Y-94086071D01*
X180710050Y-94060689D01*
X180700542Y-94031933D01*
X180696560Y-94021355D01*
X180685314Y-93994841D01*
X180672976Y-93971599D01*
X180657205Y-93948617D01*
X180639948Y-93930089D01*
X180623976Y-93917752D01*
X180600635Y-93905267D01*
X180575277Y-93896349D01*
X180547902Y-93890998D01*
X180522296Y-93889242D01*
X180518512Y-93889214D01*
X180230037Y-93889214D01*
X180231971Y-93915321D01*
X180233817Y-93941297D01*
X180235577Y-93967142D01*
X180237249Y-93992856D01*
X180238834Y-94018439D01*
X180240331Y-94043892D01*
X180241742Y-94069213D01*
X180243065Y-94094404D01*
X180244301Y-94119464D01*
X180245449Y-94144393D01*
X180246167Y-94160939D01*
X180247165Y-94185781D01*
X180248064Y-94210754D01*
X180248866Y-94235857D01*
X180249569Y-94261092D01*
X180250174Y-94286457D01*
X180250681Y-94311953D01*
X180251090Y-94337580D01*
X180251401Y-94363337D01*
X180251614Y-94389226D01*
X180251728Y-94415246D01*
X180251750Y-94432665D01*
X180251537Y-94462355D01*
X180250897Y-94490631D01*
X180249831Y-94517491D01*
X180248338Y-94542937D01*
X180245872Y-94572753D01*
X180242740Y-94600358D01*
X180238941Y-94625751D01*
X180238102Y-94630565D01*
X180232358Y-94658147D01*
X180225830Y-94683200D01*
X180217221Y-94709230D01*
X180206074Y-94734763D01*
X180198398Y-94748436D01*
X180182662Y-94769658D01*
X180162645Y-94788172D01*
X180139962Y-94801355D01*
X180132638Y-94804270D01*
X180106647Y-94811795D01*
X180081909Y-94816184D01*
X180055895Y-94818316D01*
X180043924Y-94818539D01*
X180017851Y-94817678D01*
X179990671Y-94814586D01*
X179966282Y-94809245D01*
X179942182Y-94800548D01*
X179920088Y-94788318D01*
X179899172Y-94771868D01*
X179881569Y-94753702D01*
X179868978Y-94737890D01*
X179854593Y-94716804D01*
X179840208Y-94692632D01*
X179827878Y-94669455D01*
X179815548Y-94644009D01*
X179805273Y-94621072D01*
X179803218Y-94616296D01*
X179792564Y-94591436D01*
X179781153Y-94564546D01*
X179771479Y-94541572D01*
X179761320Y-94517300D01*
X179750677Y-94491729D01*
X179739549Y-94464859D01*
X179727936Y-94436690D01*
X179721948Y-94422118D01*
X179709242Y-94391130D01*
X179696481Y-94361210D01*
X179683666Y-94332359D01*
X179670796Y-94304576D01*
X179657872Y-94277862D01*
X179644893Y-94252217D01*
X179631860Y-94227641D01*
X179618772Y-94204133D01*
X179605629Y-94181694D01*
X179592432Y-94160324D01*
X179583604Y-94146671D01*
X179565497Y-94120567D01*
X179546847Y-94095916D01*
X179527654Y-94072720D01*
X179507918Y-94050978D01*
X179487640Y-94030689D01*
X179466818Y-94011855D01*
X179445454Y-93994475D01*
X179423547Y-93978549D01*
X179401068Y-93964047D01*
X179377988Y-93950632D01*
X179354307Y-93938302D01*
X179330025Y-93927057D01*
X179305142Y-93916899D01*
X179279658Y-93907826D01*
X179253573Y-93899838D01*
X179226888Y-93892937D01*
X179199281Y-93887121D01*
X179170743Y-93882080D01*
X179141276Y-93877815D01*
X179110877Y-93874325D01*
X179079548Y-93871611D01*
X179047288Y-93869673D01*
X179022483Y-93868727D01*
X178997154Y-93868219D01*
X178979978Y-93868122D01*
X178954024Y-93868352D01*
X178928583Y-93869042D01*
X178903657Y-93870194D01*
X178867230Y-93872784D01*
X178831960Y-93876409D01*
X178797845Y-93881071D01*
X178764886Y-93886769D01*
X178733083Y-93893503D01*
X178702437Y-93901273D01*
X178672946Y-93910079D01*
X178644611Y-93919921D01*
X178626363Y-93927057D01*
X178599862Y-93938560D01*
X178574331Y-93950969D01*
X178549771Y-93964282D01*
X178526182Y-93978500D01*
X178503563Y-93993624D01*
X178481914Y-94009652D01*
X178461237Y-94026586D01*
X178441529Y-94044425D01*
X178422793Y-94063169D01*
X178405026Y-94082818D01*
X178393721Y-94096420D01*
X178377524Y-94117645D01*
X178362199Y-94139677D01*
X178347746Y-94162516D01*
X178334165Y-94186162D01*
X178321457Y-94210614D01*
X178309622Y-94235874D01*
X178298658Y-94261941D01*
X178288568Y-94288815D01*
X178279349Y-94316495D01*
X178271003Y-94344983D01*
X178265924Y-94364423D01*
X178258939Y-94394312D01*
X178252641Y-94424888D01*
X178247031Y-94456151D01*
X178242107Y-94488101D01*
X178237871Y-94520738D01*
X178234321Y-94554062D01*
X178231458Y-94588073D01*
X178229283Y-94622771D01*
X178227794Y-94658156D01*
X178226993Y-94694228D01*
X178226840Y-94718658D01*
X177784575Y-94718658D01*
X177784575Y-93505265D01*
X181130761Y-93505265D01*
X181130761Y-120369936D01*
G37*
D11*
G36*
X176074839Y-119410675D02*
G01*
X176111594Y-119410963D01*
X176146866Y-119411444D01*
X176180654Y-119412117D01*
X176212958Y-119412983D01*
X176253722Y-119414436D01*
X176291849Y-119416231D01*
X176327337Y-119418369D01*
X176360188Y-119420848D01*
X176367988Y-119421521D01*
X176405186Y-119425661D01*
X176439597Y-119430756D01*
X176471223Y-119436805D01*
X176505496Y-119445323D01*
X176535758Y-119455215D01*
X176557912Y-119464508D01*
X176587953Y-119481263D01*
X176615094Y-119502798D01*
X176635187Y-119527177D01*
X176644667Y-119545010D01*
X176654868Y-119575620D01*
X176661132Y-119606980D01*
X176664759Y-119642249D01*
X176665769Y-119676315D01*
X176664759Y-119710039D01*
X176661132Y-119744917D01*
X176654868Y-119775887D01*
X176644667Y-119806057D01*
X176627127Y-119835488D01*
X176603902Y-119858844D01*
X176577340Y-119877113D01*
X176557912Y-119887341D01*
X176526116Y-119900046D01*
X176494518Y-119909388D01*
X176458907Y-119917302D01*
X176426167Y-119922805D01*
X176390641Y-119927316D01*
X176367988Y-119929546D01*
X176335797Y-119932294D01*
X176300968Y-119934675D01*
X176263501Y-119936690D01*
X176223397Y-119938339D01*
X176191587Y-119939335D01*
X176158294Y-119940125D01*
X176123517Y-119940709D01*
X176087256Y-119941086D01*
X176049511Y-119941258D01*
X176036600Y-119941270D01*
X175998940Y-119941167D01*
X175962750Y-119940857D01*
X175928030Y-119940342D01*
X175894780Y-119939621D01*
X175863000Y-119938694D01*
X175822914Y-119937137D01*
X175785441Y-119935213D01*
X175750581Y-119932923D01*
X175718335Y-119930267D01*
X175710682Y-119929546D01*
X175674179Y-119925630D01*
X175640386Y-119920723D01*
X175609302Y-119914823D01*
X175575578Y-119906433D01*
X175545756Y-119896614D01*
X175523885Y-119887341D01*
X175493501Y-119870537D01*
X175468784Y-119851388D01*
X175447750Y-119827043D01*
X175436348Y-119806057D01*
X175426147Y-119775887D01*
X175419883Y-119744917D01*
X175416256Y-119710039D01*
X175415246Y-119676315D01*
X175416256Y-119642249D01*
X175419883Y-119606980D01*
X175426147Y-119575620D01*
X175436348Y-119545010D01*
X175453964Y-119515991D01*
X175477389Y-119492876D01*
X175504231Y-119474716D01*
X175523885Y-119464508D01*
X175555263Y-119451765D01*
X175586386Y-119442331D01*
X175621410Y-119434271D01*
X175653578Y-119428604D01*
X175688455Y-119423891D01*
X175710682Y-119421521D01*
X175742275Y-119418956D01*
X175776481Y-119416734D01*
X175813301Y-119414853D01*
X175852734Y-119413314D01*
X175884023Y-119412385D01*
X175916783Y-119411647D01*
X175951013Y-119411102D01*
X175986713Y-119410750D01*
X176023883Y-119410589D01*
X176036600Y-119410579D01*
X176074839Y-119410675D01*
G37*
G36*
X176074839Y-111676188D02*
G01*
X176111594Y-111676476D01*
X176146866Y-111676957D01*
X176180654Y-111677630D01*
X176212958Y-111678496D01*
X176253722Y-111679949D01*
X176291849Y-111681744D01*
X176327337Y-111683881D01*
X176360188Y-111686360D01*
X176367988Y-111687034D01*
X176405186Y-111691174D01*
X176439597Y-111696269D01*
X176471223Y-111702318D01*
X176505496Y-111710836D01*
X176535758Y-111720728D01*
X176557912Y-111730020D01*
X176587953Y-111746775D01*
X176615094Y-111768311D01*
X176635187Y-111792690D01*
X176644667Y-111810523D01*
X176654868Y-111841133D01*
X176661132Y-111872493D01*
X176664759Y-111907762D01*
X176665769Y-111941828D01*
X176664759Y-111975552D01*
X176661132Y-112010430D01*
X176654868Y-112041400D01*
X176644667Y-112071570D01*
X176627127Y-112101001D01*
X176603902Y-112124357D01*
X176577340Y-112142626D01*
X176557912Y-112152854D01*
X176526116Y-112165559D01*
X176494518Y-112174901D01*
X176458907Y-112182815D01*
X176426167Y-112188318D01*
X176390641Y-112192829D01*
X176367988Y-112195059D01*
X176335797Y-112197807D01*
X176300968Y-112200188D01*
X176263501Y-112202203D01*
X176223397Y-112203852D01*
X176191587Y-112204848D01*
X176158294Y-112205638D01*
X176123517Y-112206221D01*
X176087256Y-112206599D01*
X176049511Y-112206771D01*
X176036600Y-112206782D01*
X175998940Y-112206679D01*
X175962750Y-112206370D01*
X175928030Y-112205855D01*
X175894780Y-112205134D01*
X175863000Y-112204206D01*
X175822914Y-112202649D01*
X175785441Y-112200726D01*
X175750581Y-112198436D01*
X175718335Y-112195780D01*
X175710682Y-112195059D01*
X175674179Y-112191143D01*
X175640386Y-112186236D01*
X175609302Y-112180336D01*
X175575578Y-112171946D01*
X175545756Y-112162127D01*
X175523885Y-112152854D01*
X175493501Y-112136050D01*
X175468784Y-112116901D01*
X175447750Y-112092556D01*
X175436348Y-112071570D01*
X175426147Y-112041400D01*
X175419883Y-112010430D01*
X175416256Y-111975552D01*
X175415246Y-111941828D01*
X175416256Y-111907762D01*
X175419883Y-111872493D01*
X175426147Y-111841133D01*
X175436348Y-111810523D01*
X175453964Y-111781504D01*
X175477389Y-111758388D01*
X175504231Y-111740229D01*
X175523885Y-111730020D01*
X175555263Y-111717278D01*
X175586386Y-111707844D01*
X175621410Y-111699784D01*
X175653578Y-111694117D01*
X175688455Y-111689404D01*
X175710682Y-111687034D01*
X175742275Y-111684469D01*
X175776481Y-111682247D01*
X175813301Y-111680366D01*
X175852734Y-111678827D01*
X175884023Y-111677897D01*
X175916783Y-111677160D01*
X175951013Y-111676615D01*
X175986713Y-111676263D01*
X176023883Y-111676102D01*
X176036600Y-111676092D01*
X176074839Y-111676188D01*
G37*
G36*
X175865434Y-104051807D02*
G01*
X175834012Y-104051587D01*
X175789215Y-104050433D01*
X175747221Y-104048290D01*
X175708029Y-104045157D01*
X175671640Y-104041036D01*
X175638053Y-104035925D01*
X175607270Y-104029825D01*
X175570584Y-104020153D01*
X175538882Y-104008722D01*
X175512161Y-103995533D01*
X175484241Y-103975696D01*
X175461054Y-103951356D01*
X175442598Y-103922512D01*
X175428875Y-103889166D01*
X175419883Y-103851316D01*
X175416098Y-103817793D01*
X175415246Y-103790760D01*
X175416153Y-103757959D01*
X175420183Y-103717494D01*
X175427437Y-103680766D01*
X175437915Y-103647775D01*
X175451617Y-103618521D01*
X175473278Y-103587208D01*
X175499977Y-103561734D01*
X175518414Y-103549253D01*
X175546404Y-103535075D01*
X175578791Y-103522630D01*
X175615574Y-103511920D01*
X175656753Y-103502944D01*
X175690523Y-103497350D01*
X175726765Y-103492732D01*
X175765481Y-103489089D01*
X175806669Y-103486421D01*
X175850331Y-103484729D01*
X175865434Y-103484382D01*
X175865434Y-104051807D01*
G37*
G36*
X176430864Y-96930154D02*
G01*
X176464837Y-96935077D01*
X176500466Y-96945317D01*
X176530489Y-96960283D01*
X176554907Y-96979975D01*
X176568072Y-96995729D01*
X176584275Y-97023261D01*
X176597125Y-97054860D01*
X176606623Y-97090525D01*
X176611977Y-97123353D01*
X176615003Y-97159005D01*
X176615748Y-97189560D01*
X176615020Y-97222716D01*
X176612836Y-97254773D01*
X176607658Y-97295806D01*
X176599891Y-97334884D01*
X176589535Y-97372009D01*
X176576590Y-97407180D01*
X176561056Y-97440397D01*
X176542933Y-97471660D01*
X176532901Y-97486559D01*
X176165560Y-97486559D01*
X176165560Y-97198157D01*
X176166500Y-97162400D01*
X176169321Y-97129378D01*
X176175492Y-97091948D01*
X176184602Y-97058792D01*
X176196650Y-97029911D01*
X176214986Y-97000894D01*
X176225741Y-96988695D01*
X176249720Y-96968242D01*
X176277106Y-96952021D01*
X176307898Y-96940032D01*
X176342099Y-96932274D01*
X176373201Y-96929042D01*
X176392999Y-96928513D01*
X176430864Y-96930154D01*
G37*
G36*
X175865434Y-95360669D02*
G01*
X175834012Y-95360450D01*
X175789215Y-95359296D01*
X175747221Y-95357152D01*
X175708029Y-95354020D01*
X175671640Y-95349898D01*
X175638053Y-95344788D01*
X175607270Y-95338688D01*
X175570584Y-95329016D01*
X175538882Y-95317585D01*
X175512161Y-95304396D01*
X175484241Y-95284559D01*
X175461054Y-95260218D01*
X175442598Y-95231375D01*
X175428875Y-95198028D01*
X175419883Y-95160178D01*
X175416098Y-95126656D01*
X175415246Y-95099623D01*
X175416153Y-95066822D01*
X175420183Y-95026357D01*
X175427437Y-94989629D01*
X175437915Y-94956638D01*
X175451617Y-94927383D01*
X175473278Y-94896071D01*
X175499977Y-94870597D01*
X175518414Y-94858115D01*
X175546404Y-94843937D01*
X175578791Y-94831493D01*
X175615574Y-94820783D01*
X175656753Y-94811807D01*
X175690523Y-94806213D01*
X175726765Y-94801594D01*
X175765481Y-94797951D01*
X175806669Y-94795284D01*
X175850331Y-94793592D01*
X175865434Y-94793244D01*
X175865434Y-95360669D01*
G37*
G36*
X177723163Y-122953388D02*
G01*
X173507496Y-122953388D01*
X173507496Y-121105038D01*
X174865016Y-121105038D01*
X174865016Y-121537250D01*
X174866252Y-121572384D01*
X174870820Y-121608096D01*
X174880162Y-121641948D01*
X174895928Y-121671156D01*
X174900187Y-121676371D01*
X174926524Y-121698861D01*
X174956069Y-121715840D01*
X174987705Y-121730037D01*
X175018518Y-121741616D01*
X175053376Y-121752965D01*
X175179991Y-121788918D01*
X175152724Y-121807041D01*
X175126612Y-121825948D01*
X175101653Y-121845638D01*
X175077849Y-121866111D01*
X175047905Y-121894626D01*
X175020012Y-121924534D01*
X174994171Y-121955833D01*
X174970382Y-121988525D01*
X174948644Y-122022609D01*
X174929044Y-122057866D01*
X174912057Y-122093684D01*
X174897683Y-122130064D01*
X174885923Y-122167006D01*
X174876776Y-122204509D01*
X174870242Y-122242575D01*
X174866322Y-122281202D01*
X174865016Y-122320390D01*
X174866355Y-122351817D01*
X174872308Y-122388912D01*
X174883025Y-122420511D01*
X174903117Y-122452281D01*
X174930652Y-122475465D01*
X174965628Y-122490063D01*
X174998967Y-122495558D01*
X175017423Y-122496245D01*
X175519196Y-122496245D01*
X175516146Y-122464131D01*
X175515288Y-122437627D01*
X175515288Y-122404517D01*
X175515288Y-122374319D01*
X175515642Y-122338391D01*
X175516704Y-122302512D01*
X175518475Y-122266681D01*
X175520954Y-122230900D01*
X175524142Y-122195167D01*
X175528037Y-122159483D01*
X175532641Y-122123848D01*
X175537953Y-122088262D01*
X175544279Y-122053702D01*
X175552315Y-122020753D01*
X175562060Y-121989417D01*
X175573515Y-121959692D01*
X175590238Y-121924804D01*
X175609633Y-121892434D01*
X175631698Y-121862583D01*
X175636432Y-121856915D01*
X177216000Y-121856915D01*
X177216000Y-121271514D01*
X177213533Y-121232496D01*
X177206132Y-121198681D01*
X177189943Y-121163727D01*
X177166046Y-121136902D01*
X177134439Y-121118206D01*
X177103604Y-121109102D01*
X177067834Y-121105200D01*
X177058121Y-121105038D01*
X174865016Y-121105038D01*
X173507496Y-121105038D01*
X173507496Y-119676315D01*
X174814995Y-119676315D01*
X174815260Y-119710298D01*
X174816057Y-119743665D01*
X174817385Y-119776415D01*
X174819244Y-119808548D01*
X174821635Y-119840064D01*
X174826217Y-119886183D01*
X174831994Y-119930914D01*
X174838966Y-119974257D01*
X174847134Y-120016212D01*
X174856497Y-120056780D01*
X174867055Y-120095961D01*
X174878808Y-120133754D01*
X174882992Y-120146043D01*
X174896309Y-120182187D01*
X174911055Y-120217053D01*
X174927230Y-120250642D01*
X174944834Y-120282953D01*
X174963867Y-120313986D01*
X174984328Y-120343742D01*
X175006218Y-120372220D01*
X175029538Y-120399420D01*
X175054285Y-120425343D01*
X175080462Y-120449988D01*
X175098707Y-120465708D01*
X175127286Y-120488411D01*
X175157335Y-120509919D01*
X175188853Y-120530231D01*
X175221842Y-120549349D01*
X175256301Y-120567271D01*
X175292230Y-120583998D01*
X175329629Y-120599529D01*
X175368498Y-120613866D01*
X175408837Y-120627007D01*
X175450646Y-120638952D01*
X175479335Y-120646252D01*
X175523711Y-120656309D01*
X175569790Y-120665376D01*
X175601457Y-120670872D01*
X175633880Y-120675928D01*
X175667060Y-120680544D01*
X175700998Y-120684720D01*
X175735692Y-120688457D01*
X175771144Y-120691755D01*
X175807353Y-120694612D01*
X175844319Y-120697030D01*
X175882043Y-120699009D01*
X175920523Y-120700547D01*
X175959761Y-120701646D01*
X175999756Y-120702306D01*
X176040508Y-120702526D01*
X176080692Y-120702306D01*
X176120155Y-120701646D01*
X176158898Y-120700547D01*
X176196921Y-120699009D01*
X176234223Y-120697030D01*
X176270804Y-120694612D01*
X176306665Y-120691755D01*
X176341806Y-120688457D01*
X176376225Y-120684720D01*
X176409925Y-120680544D01*
X176442904Y-120675928D01*
X176475162Y-120670872D01*
X176506700Y-120665376D01*
X176537517Y-120659441D01*
X176582392Y-120649714D01*
X176596990Y-120646252D01*
X176639779Y-120635103D01*
X176681099Y-120622759D01*
X176720947Y-120609220D01*
X176759326Y-120594485D01*
X176796235Y-120578555D01*
X176831674Y-120561430D01*
X176865643Y-120543109D01*
X176898142Y-120523593D01*
X176929171Y-120502882D01*
X176958729Y-120480976D01*
X176977618Y-120465708D01*
X177004775Y-120441915D01*
X177030558Y-120416844D01*
X177054967Y-120390496D01*
X177078002Y-120362869D01*
X177099664Y-120333966D01*
X177119951Y-120303784D01*
X177138865Y-120272325D01*
X177156404Y-120239588D01*
X177172570Y-120205573D01*
X177187362Y-120170281D01*
X177196460Y-120146043D01*
X177208891Y-120108713D01*
X177220100Y-120069995D01*
X177230085Y-120029889D01*
X177238848Y-119988396D01*
X177246389Y-119945516D01*
X177252706Y-119901247D01*
X177257801Y-119855591D01*
X177260518Y-119824383D01*
X177262692Y-119792558D01*
X177264322Y-119760117D01*
X177265409Y-119727059D01*
X177265953Y-119693384D01*
X177266020Y-119676315D01*
X177265749Y-119642234D01*
X177264934Y-119608770D01*
X177263575Y-119575922D01*
X177261673Y-119543691D01*
X177259227Y-119512077D01*
X177254540Y-119465812D01*
X177248630Y-119420935D01*
X177241498Y-119377445D01*
X177233142Y-119335343D01*
X177223564Y-119294628D01*
X177212763Y-119255301D01*
X177200740Y-119217362D01*
X177196460Y-119205024D01*
X177182584Y-119169013D01*
X177167334Y-119134252D01*
X177150710Y-119100741D01*
X177132713Y-119068480D01*
X177113341Y-119037470D01*
X177092596Y-119007709D01*
X177070477Y-118979199D01*
X177046983Y-118951939D01*
X177022116Y-118925930D01*
X176995876Y-118901171D01*
X176977618Y-118885359D01*
X176949040Y-118862795D01*
X176918991Y-118841413D01*
X176887472Y-118821213D01*
X176854483Y-118802194D01*
X176820025Y-118784357D01*
X176784096Y-118767701D01*
X176746697Y-118752227D01*
X176707828Y-118737934D01*
X176667489Y-118724823D01*
X176625680Y-118712893D01*
X176596990Y-118705596D01*
X176552656Y-118695539D01*
X176506700Y-118686472D01*
X176475162Y-118680976D01*
X176442904Y-118675921D01*
X176409925Y-118671304D01*
X176376225Y-118667128D01*
X176341806Y-118663391D01*
X176306665Y-118660094D01*
X176270804Y-118657236D01*
X176234223Y-118654818D01*
X176196921Y-118652840D01*
X176158898Y-118651301D01*
X176120155Y-118650202D01*
X176080692Y-118649542D01*
X176040508Y-118649323D01*
X175999756Y-118649542D01*
X175959761Y-118650202D01*
X175920523Y-118651301D01*
X175882043Y-118652840D01*
X175844319Y-118654818D01*
X175807353Y-118657236D01*
X175771144Y-118660094D01*
X175735692Y-118663391D01*
X175700998Y-118667128D01*
X175667060Y-118671304D01*
X175633880Y-118675921D01*
X175601457Y-118680976D01*
X175569790Y-118686472D01*
X175538882Y-118692407D01*
X175493938Y-118702134D01*
X175479335Y-118705596D01*
X175436546Y-118716738D01*
X175395227Y-118729062D01*
X175355378Y-118742567D01*
X175316999Y-118757254D01*
X175280090Y-118773122D01*
X175244651Y-118790171D01*
X175210683Y-118808403D01*
X175178184Y-118827815D01*
X175147155Y-118848410D01*
X175117596Y-118870185D01*
X175098707Y-118885359D01*
X175071578Y-118909285D01*
X175045877Y-118934461D01*
X175021606Y-118960887D01*
X174998763Y-118988564D01*
X174977349Y-119017490D01*
X174957364Y-119047667D01*
X174938807Y-119079095D01*
X174921680Y-119111772D01*
X174905981Y-119145700D01*
X174891711Y-119180877D01*
X174882992Y-119205024D01*
X174870840Y-119242501D01*
X174859883Y-119281365D01*
X174850122Y-119321617D01*
X174841556Y-119363257D01*
X174834185Y-119406284D01*
X174828010Y-119450699D01*
X174823029Y-119496501D01*
X174820373Y-119527807D01*
X174818248Y-119559729D01*
X174816655Y-119592269D01*
X174815592Y-119625425D01*
X174815061Y-119659197D01*
X174814995Y-119676315D01*
X173507496Y-119676315D01*
X173507496Y-117717683D01*
X174314785Y-117717683D01*
X174317240Y-117756700D01*
X174324604Y-117790516D01*
X174340712Y-117825469D01*
X174364492Y-117852294D01*
X174395942Y-117870990D01*
X174426625Y-117880094D01*
X174462217Y-117883996D01*
X174471882Y-117884159D01*
X174865016Y-117884159D01*
X174865016Y-118226489D01*
X174867470Y-118265507D01*
X174874834Y-118299323D01*
X174890943Y-118334276D01*
X174914722Y-118361101D01*
X174946172Y-118379797D01*
X174976855Y-118388901D01*
X175012447Y-118392803D01*
X175022113Y-118392965D01*
X175465267Y-118392965D01*
X175465267Y-117884159D01*
X176432078Y-117884159D01*
X176473841Y-117886020D01*
X176511496Y-117891605D01*
X176545044Y-117900913D01*
X176574483Y-117913944D01*
X176607346Y-117937110D01*
X176632906Y-117966896D01*
X176651163Y-118003300D01*
X176660064Y-118034947D01*
X176664856Y-118070317D01*
X176665769Y-118095966D01*
X176665769Y-118226489D01*
X176668322Y-118265507D01*
X176675979Y-118299323D01*
X176688740Y-118327936D01*
X176711871Y-118356386D01*
X176742977Y-118376708D01*
X176773605Y-118387113D01*
X176809338Y-118392315D01*
X176829119Y-118392965D01*
X177189426Y-118392965D01*
X177199232Y-118359553D01*
X177208330Y-118326922D01*
X177216720Y-118295073D01*
X177224401Y-118264005D01*
X177233007Y-118226270D01*
X177240506Y-118189755D01*
X177246899Y-118154462D01*
X177248044Y-118147550D01*
X177253223Y-118112616D01*
X177257524Y-118076689D01*
X177260947Y-118039770D01*
X177263493Y-118001859D01*
X177265160Y-117962956D01*
X177265862Y-117931119D01*
X177266020Y-117906824D01*
X177265704Y-117873309D01*
X177264756Y-117840467D01*
X177263177Y-117808298D01*
X177260965Y-117776802D01*
X177257032Y-117735854D01*
X177251976Y-117696104D01*
X177245797Y-117657550D01*
X177238494Y-117620193D01*
X177230068Y-117584033D01*
X177220200Y-117549289D01*
X177208575Y-117515792D01*
X177195190Y-117483539D01*
X177180047Y-117452533D01*
X177163145Y-117422772D01*
X177144485Y-117394256D01*
X177124066Y-117366987D01*
X177101889Y-117340963D01*
X177077856Y-117316489D01*
X177051868Y-117293482D01*
X177023927Y-117271939D01*
X176994032Y-117251863D01*
X176962182Y-117233251D01*
X176928379Y-117216106D01*
X176892622Y-117200425D01*
X176854911Y-117186210D01*
X176825167Y-117176573D01*
X176793966Y-117167883D01*
X176761309Y-117160141D01*
X176727196Y-117153347D01*
X176691627Y-117147502D01*
X176654601Y-117142604D01*
X176616119Y-117138654D01*
X176576181Y-117135652D01*
X176534786Y-117133598D01*
X176491935Y-117132492D01*
X176462559Y-117132281D01*
X175465267Y-117132281D01*
X175465267Y-117042400D01*
X175462800Y-117003382D01*
X175455399Y-116969567D01*
X175439211Y-116934613D01*
X175415313Y-116907789D01*
X175383706Y-116889093D01*
X175352871Y-116879988D01*
X175317101Y-116876087D01*
X175307388Y-116875924D01*
X174865016Y-116875924D01*
X174865016Y-117159637D01*
X174314785Y-117195589D01*
X174314785Y-117717683D01*
X173507496Y-117717683D01*
X173507496Y-116175631D01*
X173964639Y-116175631D01*
X173965346Y-116217548D01*
X173967469Y-116257129D01*
X173971007Y-116294374D01*
X173975959Y-116329284D01*
X173982327Y-116361859D01*
X173993019Y-116401658D01*
X174006226Y-116437305D01*
X174021950Y-116468800D01*
X174040188Y-116496143D01*
X174045141Y-116502330D01*
X174066964Y-116525045D01*
X174092182Y-116544731D01*
X174120795Y-116561388D01*
X174152803Y-116575017D01*
X174188206Y-116585617D01*
X174227004Y-116593189D01*
X174258331Y-116596880D01*
X174291567Y-116598867D01*
X174314785Y-116599246D01*
X174349294Y-116598394D01*
X174381894Y-116595839D01*
X174422390Y-116589781D01*
X174459490Y-116580696D01*
X174493196Y-116568581D01*
X174523506Y-116553438D01*
X174550422Y-116535266D01*
X174573942Y-116514066D01*
X174584429Y-116502330D01*
X174603297Y-116476025D01*
X174619649Y-116445568D01*
X174633486Y-116410959D01*
X174644806Y-116372198D01*
X174651646Y-116340402D01*
X174657070Y-116306270D01*
X174661080Y-116269803D01*
X174663674Y-116231001D01*
X174664853Y-116189863D01*
X174664932Y-116175631D01*
X174664224Y-116133854D01*
X174662102Y-116094399D01*
X174658564Y-116057266D01*
X174653611Y-116022454D01*
X174647243Y-115989964D01*
X174636552Y-115950257D01*
X174623344Y-115914677D01*
X174607621Y-115883224D01*
X174589382Y-115855900D01*
X174584429Y-115849713D01*
X174562606Y-115826999D01*
X174537388Y-115807313D01*
X174521613Y-115798129D01*
X174865016Y-115798129D01*
X174865016Y-116382749D01*
X174867495Y-116421767D01*
X174874932Y-116455582D01*
X174891201Y-116490536D01*
X174915217Y-116517360D01*
X174946980Y-116536056D01*
X174977968Y-116545161D01*
X175013914Y-116549062D01*
X175023676Y-116549225D01*
X177216000Y-116549225D01*
X177216000Y-115964605D01*
X177213520Y-115925587D01*
X177206083Y-115891772D01*
X177189814Y-115856819D01*
X177165798Y-115829994D01*
X177134035Y-115811298D01*
X177103047Y-115802194D01*
X177067101Y-115798292D01*
X177057339Y-115798129D01*
X174865016Y-115798129D01*
X174521613Y-115798129D01*
X174508775Y-115790655D01*
X174476767Y-115777027D01*
X174441364Y-115766427D01*
X174402566Y-115758855D01*
X174371240Y-115755164D01*
X174338004Y-115753176D01*
X174314785Y-115752798D01*
X174280276Y-115753650D01*
X174247676Y-115756205D01*
X174207181Y-115762262D01*
X174170081Y-115771348D01*
X174136375Y-115783463D01*
X174106064Y-115798606D01*
X174079149Y-115816777D01*
X174055628Y-115837978D01*
X174045141Y-115849713D01*
X174026273Y-115876006D01*
X174009921Y-115906427D01*
X173996085Y-115940975D01*
X173984764Y-115979651D01*
X173977925Y-116011366D01*
X173972500Y-116045404D01*
X173968491Y-116081763D01*
X173965897Y-116120444D01*
X173964717Y-116161447D01*
X173964639Y-116175631D01*
X173507496Y-116175631D01*
X173507496Y-114707048D01*
X174814995Y-114707048D01*
X174815772Y-114746381D01*
X174818103Y-114784467D01*
X174821988Y-114821303D01*
X174827427Y-114856891D01*
X174834420Y-114891230D01*
X174842967Y-114924320D01*
X174853067Y-114956162D01*
X174864722Y-114986755D01*
X174877931Y-115016099D01*
X174892694Y-115044194D01*
X174909011Y-115071041D01*
X174946307Y-115120989D01*
X174989819Y-115165942D01*
X175013906Y-115186545D01*
X175039547Y-115205900D01*
X175066742Y-115224006D01*
X175095491Y-115240863D01*
X175125794Y-115256472D01*
X175157651Y-115270832D01*
X175191061Y-115283943D01*
X175226026Y-115295806D01*
X175262545Y-115306420D01*
X175300618Y-115315785D01*
X175340245Y-115323901D01*
X175381426Y-115330769D01*
X175424161Y-115336388D01*
X175468450Y-115340759D01*
X175514292Y-115343880D01*
X175561689Y-115345753D01*
X175610640Y-115346378D01*
X177216000Y-115346378D01*
X177216000Y-114760976D01*
X177213533Y-114721959D01*
X177206132Y-114688143D01*
X177189943Y-114653190D01*
X177166046Y-114626365D01*
X177134439Y-114607669D01*
X177103604Y-114598565D01*
X177067834Y-114594663D01*
X177058121Y-114594501D01*
X175695050Y-114594501D01*
X175659902Y-114593394D01*
X175627731Y-114590074D01*
X175593055Y-114583168D01*
X175562665Y-114573074D01*
X175532627Y-114557270D01*
X175521540Y-114549169D01*
X175499613Y-114526013D01*
X175483072Y-114495527D01*
X175473180Y-114463562D01*
X175467245Y-114426211D01*
X175465322Y-114390971D01*
X175465267Y-114383475D01*
X175466683Y-114349232D01*
X175470933Y-114314501D01*
X175476976Y-114283710D01*
X175485188Y-114252545D01*
X175487933Y-114243572D01*
X175498896Y-114213199D01*
X175513990Y-114181142D01*
X175531820Y-114151918D01*
X175552385Y-114125528D01*
X175555148Y-114122428D01*
X177216000Y-114122428D01*
X177216000Y-113537027D01*
X177213520Y-113498009D01*
X177206083Y-113464193D01*
X177189814Y-113429240D01*
X177165798Y-113402415D01*
X177134035Y-113383719D01*
X177103047Y-113374615D01*
X177067101Y-113370713D01*
X177057339Y-113370551D01*
X174865016Y-113370551D01*
X174865016Y-113802763D01*
X174866225Y-113839170D01*
X174869852Y-113871017D01*
X174877139Y-113902406D01*
X174891345Y-113933640D01*
X174899405Y-113944228D01*
X174925055Y-113965585D01*
X174953725Y-113981939D01*
X174984371Y-113995779D01*
X175014191Y-114007186D01*
X175047905Y-114018478D01*
X175129970Y-114045833D01*
X175098749Y-114075367D01*
X175069273Y-114104763D01*
X175041541Y-114134022D01*
X175015555Y-114163143D01*
X174991313Y-114192127D01*
X174968816Y-114220974D01*
X174948063Y-114249683D01*
X174929056Y-114278255D01*
X174911793Y-114306689D01*
X174896276Y-114334986D01*
X174886900Y-114353775D01*
X174874049Y-114382511D01*
X174862463Y-114412155D01*
X174852141Y-114442705D01*
X174843083Y-114474162D01*
X174835288Y-114506526D01*
X174828758Y-114539796D01*
X174823491Y-114573973D01*
X174819489Y-114609057D01*
X174816750Y-114645048D01*
X174815275Y-114681946D01*
X174814995Y-114707048D01*
X173507496Y-114707048D01*
X173507496Y-111941828D01*
X174814995Y-111941828D01*
X174815260Y-111975811D01*
X174816057Y-112009178D01*
X174817385Y-112041928D01*
X174819244Y-112074061D01*
X174821635Y-112105577D01*
X174826217Y-112151696D01*
X174831994Y-112196427D01*
X174838966Y-112239770D01*
X174847134Y-112281725D01*
X174856497Y-112322293D01*
X174867055Y-112361474D01*
X174878808Y-112399266D01*
X174882992Y-112411556D01*
X174896309Y-112447700D01*
X174911055Y-112482566D01*
X174927230Y-112516155D01*
X174944834Y-112548466D01*
X174963867Y-112579499D01*
X174984328Y-112609255D01*
X175006218Y-112637733D01*
X175029538Y-112664933D01*
X175054285Y-112690856D01*
X175080462Y-112715501D01*
X175098707Y-112731221D01*
X175127286Y-112753924D01*
X175157335Y-112775432D01*
X175188853Y-112795744D01*
X175221842Y-112814862D01*
X175256301Y-112832784D01*
X175292230Y-112849511D01*
X175329629Y-112865042D01*
X175368498Y-112879378D01*
X175408837Y-112892519D01*
X175450646Y-112904465D01*
X175479335Y-112911765D01*
X175523711Y-112921822D01*
X175569790Y-112930889D01*
X175601457Y-112936385D01*
X175633880Y-112941441D01*
X175667060Y-112946057D01*
X175700998Y-112950233D01*
X175735692Y-112953970D01*
X175771144Y-112957267D01*
X175807353Y-112960125D01*
X175844319Y-112962543D01*
X175882043Y-112964521D01*
X175920523Y-112966060D01*
X175959761Y-112967159D01*
X175999756Y-112967819D01*
X176040508Y-112968039D01*
X176080692Y-112967819D01*
X176120155Y-112967159D01*
X176158898Y-112966060D01*
X176196921Y-112964521D01*
X176234223Y-112962543D01*
X176270804Y-112960125D01*
X176306665Y-112957267D01*
X176341806Y-112953970D01*
X176376225Y-112950233D01*
X176409925Y-112946057D01*
X176442904Y-112941441D01*
X176475162Y-112936385D01*
X176506700Y-112930889D01*
X176537517Y-112924954D01*
X176582392Y-112915227D01*
X176596990Y-112911765D01*
X176639779Y-112900616D01*
X176681099Y-112888272D01*
X176720947Y-112874732D01*
X176759326Y-112859998D01*
X176796235Y-112844068D01*
X176831674Y-112826943D01*
X176865643Y-112808622D01*
X176898142Y-112789106D01*
X176929171Y-112768395D01*
X176958729Y-112746489D01*
X176977618Y-112731221D01*
X177004775Y-112707428D01*
X177030558Y-112682357D01*
X177054967Y-112656008D01*
X177078002Y-112628382D01*
X177099664Y-112599478D01*
X177119951Y-112569297D01*
X177138865Y-112537838D01*
X177156404Y-112505101D01*
X177172570Y-112471086D01*
X177187362Y-112435794D01*
X177196460Y-112411556D01*
X177208891Y-112374225D01*
X177220100Y-112335508D01*
X177230085Y-112295402D01*
X177238848Y-112253909D01*
X177246389Y-112211028D01*
X177252706Y-112166760D01*
X177257801Y-112121104D01*
X177260518Y-112089896D01*
X177262692Y-112058071D01*
X177264322Y-112025630D01*
X177265409Y-111992572D01*
X177265953Y-111958897D01*
X177266020Y-111941828D01*
X177265749Y-111907747D01*
X177264934Y-111874282D01*
X177263575Y-111841435D01*
X177261673Y-111809204D01*
X177259227Y-111777590D01*
X177254540Y-111731325D01*
X177248630Y-111686448D01*
X177241498Y-111642958D01*
X177233142Y-111600856D01*
X177223564Y-111560141D01*
X177212763Y-111520814D01*
X177200740Y-111482875D01*
X177196460Y-111470537D01*
X177182584Y-111434526D01*
X177167334Y-111399764D01*
X177150710Y-111366254D01*
X177132713Y-111333993D01*
X177113341Y-111302982D01*
X177092596Y-111273222D01*
X177070477Y-111244712D01*
X177046983Y-111217452D01*
X177022116Y-111191443D01*
X176995876Y-111166683D01*
X176977618Y-111150872D01*
X176949040Y-111128308D01*
X176918991Y-111106926D01*
X176887472Y-111086726D01*
X176854483Y-111067707D01*
X176820025Y-111049870D01*
X176784096Y-111033214D01*
X176746697Y-111017740D01*
X176707828Y-111003447D01*
X176667489Y-110990336D01*
X176625680Y-110978406D01*
X176596990Y-110971109D01*
X176552656Y-110961052D01*
X176506700Y-110951985D01*
X176475162Y-110946489D01*
X176442904Y-110941434D01*
X176409925Y-110936817D01*
X176376225Y-110932641D01*
X176341806Y-110928904D01*
X176306665Y-110925607D01*
X176270804Y-110922749D01*
X176234223Y-110920331D01*
X176196921Y-110918353D01*
X176158898Y-110916814D01*
X176120155Y-110915715D01*
X176080692Y-110915055D01*
X176040508Y-110914836D01*
X175999756Y-110915055D01*
X175959761Y-110915715D01*
X175920523Y-110916814D01*
X175882043Y-110918353D01*
X175844319Y-110920331D01*
X175807353Y-110922749D01*
X175771144Y-110925607D01*
X175735692Y-110928904D01*
X175700998Y-110932641D01*
X175667060Y-110936817D01*
X175633880Y-110941434D01*
X175601457Y-110946489D01*
X175569790Y-110951985D01*
X175538882Y-110957920D01*
X175493938Y-110967647D01*
X175479335Y-110971109D01*
X175436546Y-110982251D01*
X175395227Y-110994575D01*
X175355378Y-111008080D01*
X175316999Y-111022766D01*
X175280090Y-111038635D01*
X175244651Y-111055684D01*
X175210683Y-111073915D01*
X175178184Y-111093328D01*
X175147155Y-111113922D01*
X175117596Y-111135698D01*
X175098707Y-111150872D01*
X175071578Y-111174798D01*
X175045877Y-111199974D01*
X175021606Y-111226400D01*
X174998763Y-111254077D01*
X174977349Y-111283003D01*
X174957364Y-111313180D01*
X174938807Y-111344608D01*
X174921680Y-111377285D01*
X174905981Y-111411213D01*
X174891711Y-111446390D01*
X174882992Y-111470537D01*
X174870840Y-111508014D01*
X174859883Y-111546878D01*
X174850122Y-111587130D01*
X174841556Y-111628770D01*
X174834185Y-111671797D01*
X174828010Y-111716212D01*
X174823029Y-111762014D01*
X174820373Y-111793320D01*
X174818248Y-111825242D01*
X174816655Y-111857782D01*
X174815592Y-111890938D01*
X174815061Y-111924710D01*
X174814995Y-111941828D01*
X173507496Y-111941828D01*
X173507496Y-110229392D01*
X174114702Y-110229392D01*
X174116295Y-110261037D01*
X174122183Y-110292747D01*
X174134224Y-110322117D01*
X174154544Y-110346400D01*
X174160033Y-110350537D01*
X174187634Y-110366391D01*
X174219439Y-110378784D01*
X174251239Y-110386892D01*
X174277270Y-110391179D01*
X174317315Y-110394243D01*
X174357537Y-110397282D01*
X174397934Y-110400294D01*
X174438506Y-110403281D01*
X174479255Y-110406242D01*
X174520178Y-110409176D01*
X174561277Y-110412085D01*
X174602552Y-110414968D01*
X174644002Y-110417825D01*
X174685628Y-110420656D01*
X174727430Y-110423461D01*
X174769407Y-110426240D01*
X174811559Y-110428993D01*
X174853887Y-110431720D01*
X174896391Y-110434421D01*
X174939070Y-110437096D01*
X174981925Y-110439746D01*
X175024955Y-110442369D01*
X175068161Y-110444966D01*
X175111542Y-110447538D01*
X175155099Y-110450083D01*
X175198831Y-110452603D01*
X175242739Y-110455096D01*
X175286823Y-110457564D01*
X175331082Y-110460006D01*
X175375517Y-110462421D01*
X175420127Y-110464811D01*
X175464913Y-110467175D01*
X175509874Y-110469513D01*
X175555011Y-110471825D01*
X175600323Y-110474111D01*
X175645811Y-110476371D01*
X175691496Y-110478583D01*
X175737399Y-110480724D01*
X175783521Y-110482796D01*
X175829860Y-110484797D01*
X175876418Y-110486728D01*
X175923195Y-110488589D01*
X175970189Y-110490380D01*
X176017402Y-110492100D01*
X176064833Y-110493750D01*
X176112483Y-110495330D01*
X176160351Y-110496840D01*
X176208437Y-110498279D01*
X176256741Y-110499649D01*
X176305264Y-110500948D01*
X176354005Y-110502177D01*
X176402964Y-110503335D01*
X176452141Y-110504424D01*
X176501537Y-110505442D01*
X176551151Y-110506390D01*
X176600984Y-110507267D01*
X176651035Y-110508075D01*
X176701303Y-110508812D01*
X176751791Y-110509479D01*
X176802496Y-110510076D01*
X176853420Y-110510603D01*
X176904562Y-110511059D01*
X176955923Y-110511446D01*
X177007502Y-110511762D01*
X177059299Y-110512007D01*
X177111314Y-110512183D01*
X177163548Y-110512288D01*
X177216000Y-110512323D01*
X177216000Y-109940209D01*
X177213533Y-109901191D01*
X177206132Y-109867376D01*
X177189943Y-109832422D01*
X177166046Y-109805597D01*
X177134439Y-109786901D01*
X177103604Y-109777797D01*
X177067834Y-109773896D01*
X177058121Y-109773733D01*
X177018277Y-109773733D01*
X176977292Y-109773733D01*
X176935167Y-109773733D01*
X176891901Y-109773733D01*
X176847496Y-109773733D01*
X176801950Y-109773733D01*
X176755264Y-109773733D01*
X176723506Y-109773733D01*
X176691241Y-109773733D01*
X176658470Y-109773733D01*
X176625192Y-109773733D01*
X176591407Y-109773733D01*
X176574325Y-109773733D01*
X176539963Y-109773724D01*
X176505460Y-109773696D01*
X176470818Y-109773650D01*
X176436034Y-109773586D01*
X176401111Y-109773504D01*
X176366047Y-109773403D01*
X176330842Y-109773284D01*
X176295497Y-109773147D01*
X176260012Y-109772991D01*
X176224386Y-109772817D01*
X176188619Y-109772625D01*
X176152713Y-109772414D01*
X176116665Y-109772185D01*
X176080478Y-109771938D01*
X176044150Y-109771672D01*
X176007681Y-109771388D01*
X175971170Y-109771086D01*
X175934714Y-109770765D01*
X175898312Y-109770426D01*
X175861966Y-109770069D01*
X175825675Y-109769694D01*
X175789438Y-109769300D01*
X175753257Y-109768888D01*
X175717130Y-109768457D01*
X175681058Y-109768008D01*
X175645042Y-109767541D01*
X175609080Y-109767056D01*
X175573173Y-109766552D01*
X175537321Y-109766030D01*
X175501525Y-109765490D01*
X175465783Y-109764931D01*
X175430096Y-109764354D01*
X175394568Y-109763862D01*
X175359497Y-109763365D01*
X175324885Y-109762861D01*
X175290731Y-109762351D01*
X175257034Y-109761835D01*
X175223796Y-109761313D01*
X175191016Y-109760785D01*
X175158693Y-109760251D01*
X175126829Y-109759710D01*
X175095422Y-109759164D01*
X175049171Y-109758333D01*
X175003950Y-109757488D01*
X174959760Y-109756629D01*
X174916600Y-109755757D01*
X176465685Y-109368876D01*
X176465685Y-108918688D01*
X176463954Y-108884094D01*
X176457559Y-108849638D01*
X176444480Y-108818045D01*
X176422409Y-108792429D01*
X176416446Y-108788164D01*
X176387320Y-108771630D01*
X176356216Y-108757197D01*
X176326907Y-108746133D01*
X176303899Y-108738925D01*
X174916600Y-108401284D01*
X174962292Y-108399726D01*
X175009097Y-108398279D01*
X175040919Y-108397376D01*
X175073236Y-108396521D01*
X175106047Y-108395715D01*
X175139352Y-108394958D01*
X175173152Y-108394249D01*
X175207447Y-108393590D01*
X175242236Y-108392979D01*
X175277520Y-108392418D01*
X175313299Y-108391905D01*
X175349572Y-108391441D01*
X175386340Y-108391025D01*
X175423602Y-108390659D01*
X175461359Y-108390341D01*
X175499311Y-108390048D01*
X175537355Y-108389755D01*
X175575491Y-108389462D01*
X175613718Y-108389169D01*
X175652036Y-108388876D01*
X175690446Y-108388583D01*
X175728948Y-108388290D01*
X175767542Y-108387997D01*
X175806227Y-108387704D01*
X175845003Y-108387411D01*
X175883872Y-108387117D01*
X175922831Y-108386824D01*
X175961883Y-108386531D01*
X176001026Y-108386238D01*
X176040260Y-108385945D01*
X176079586Y-108385652D01*
X176118888Y-108385368D01*
X176158049Y-108385102D01*
X176197070Y-108384855D01*
X176235951Y-108384626D01*
X176274691Y-108384415D01*
X176313290Y-108384223D01*
X176351749Y-108384049D01*
X176390068Y-108383893D01*
X176428246Y-108383756D01*
X176466284Y-108383637D01*
X176504181Y-108383536D01*
X176541938Y-108383454D01*
X176579555Y-108383390D01*
X176617031Y-108383344D01*
X176654366Y-108383316D01*
X176691561Y-108383307D01*
X176728414Y-108383307D01*
X176764724Y-108383307D01*
X176800491Y-108383307D01*
X176835713Y-108383307D01*
X176870393Y-108383307D01*
X176904529Y-108383307D01*
X176938121Y-108383307D01*
X176971170Y-108383307D01*
X177003676Y-108383307D01*
X177035638Y-108383307D01*
X177067057Y-108383307D01*
X177113166Y-108383307D01*
X177158053Y-108383307D01*
X177201717Y-108383307D01*
X177216000Y-108383307D01*
X177216000Y-107820572D01*
X177213533Y-107781554D01*
X177206132Y-107747739D01*
X177189943Y-107712785D01*
X177166046Y-107685960D01*
X177134439Y-107667264D01*
X177103604Y-107658160D01*
X177067834Y-107654258D01*
X177058121Y-107654096D01*
X177013367Y-107654133D01*
X176968597Y-107654245D01*
X176923809Y-107654432D01*
X176879005Y-107654694D01*
X176834185Y-107655031D01*
X176789347Y-107655442D01*
X176744492Y-107655928D01*
X176699621Y-107656489D01*
X176654733Y-107657125D01*
X176609828Y-107657836D01*
X176564907Y-107658621D01*
X176519968Y-107659481D01*
X176475013Y-107660416D01*
X176430041Y-107661426D01*
X176385053Y-107662511D01*
X176340047Y-107663670D01*
X176295025Y-107664904D01*
X176249985Y-107666213D01*
X176204930Y-107667597D01*
X176159857Y-107669056D01*
X176114767Y-107670589D01*
X176069661Y-107672197D01*
X176024538Y-107673880D01*
X175979398Y-107675638D01*
X175934241Y-107677471D01*
X175889068Y-107679378D01*
X175843878Y-107681360D01*
X175798670Y-107683417D01*
X175753447Y-107685549D01*
X175708206Y-107687756D01*
X175662949Y-107690037D01*
X175617674Y-107692393D01*
X175572339Y-107694797D01*
X175526898Y-107697223D01*
X175481352Y-107699670D01*
X175435701Y-107702138D01*
X175389945Y-107704628D01*
X175344083Y-107707139D01*
X175298115Y-107709672D01*
X175252043Y-107712226D01*
X175205865Y-107714801D01*
X175159582Y-107717397D01*
X175113193Y-107720015D01*
X175066699Y-107722655D01*
X175020100Y-107725315D01*
X174973395Y-107727998D01*
X174926585Y-107730701D01*
X174879670Y-107733426D01*
X174832650Y-107736172D01*
X174785524Y-107738940D01*
X174738292Y-107741729D01*
X174690956Y-107744539D01*
X174643514Y-107747371D01*
X174595967Y-107750224D01*
X174548314Y-107753098D01*
X174500556Y-107755994D01*
X174452693Y-107758911D01*
X174404725Y-107761850D01*
X174356651Y-107764810D01*
X174308472Y-107767791D01*
X174260187Y-107770794D01*
X174211797Y-107773818D01*
X174163302Y-107776863D01*
X174114702Y-107779930D01*
X174114702Y-108581046D01*
X174117236Y-108615544D01*
X174124841Y-108647816D01*
X174137515Y-108677863D01*
X174146746Y-108693593D01*
X174169710Y-108719188D01*
X174199154Y-108738410D01*
X174231889Y-108752505D01*
X174265128Y-108762561D01*
X174277270Y-108765498D01*
X175664569Y-109094542D01*
X174114702Y-109468136D01*
X174114702Y-110229392D01*
X173507496Y-110229392D01*
X173507496Y-105088960D01*
X174865016Y-105088960D01*
X174865016Y-105521172D01*
X174866252Y-105556306D01*
X174870820Y-105592018D01*
X174880162Y-105625870D01*
X174895928Y-105655078D01*
X174900187Y-105660293D01*
X174926524Y-105682783D01*
X174956069Y-105699762D01*
X174987705Y-105713959D01*
X175018518Y-105725537D01*
X175053376Y-105736887D01*
X175179991Y-105772840D01*
X175152724Y-105790963D01*
X175126612Y-105809870D01*
X175101653Y-105829560D01*
X175077849Y-105850033D01*
X175047905Y-105878548D01*
X175020012Y-105908456D01*
X174994171Y-105939755D01*
X174970382Y-105972447D01*
X174948644Y-106006531D01*
X174929044Y-106041788D01*
X174912057Y-106077606D01*
X174897683Y-106113986D01*
X174885923Y-106150928D01*
X174876776Y-106188431D01*
X174870242Y-106226496D01*
X174866322Y-106265123D01*
X174865016Y-106304312D01*
X174866355Y-106335739D01*
X174872308Y-106372834D01*
X174883025Y-106404433D01*
X174903117Y-106436203D01*
X174930652Y-106459387D01*
X174965628Y-106473985D01*
X174998967Y-106479480D01*
X175017423Y-106480167D01*
X175519196Y-106480167D01*
X175516146Y-106448053D01*
X175515288Y-106421549D01*
X175515288Y-106388439D01*
X175515288Y-106358241D01*
X175515642Y-106322313D01*
X175516704Y-106286434D01*
X175518475Y-106250603D01*
X175520954Y-106214822D01*
X175524142Y-106179089D01*
X175528037Y-106143405D01*
X175532641Y-106107770D01*
X175537953Y-106072184D01*
X175544279Y-106037623D01*
X175552315Y-106004675D01*
X175562060Y-105973339D01*
X175573515Y-105943614D01*
X175590238Y-105908726D01*
X175609633Y-105876356D01*
X175631698Y-105846505D01*
X175636432Y-105840837D01*
X177216000Y-105840837D01*
X177216000Y-105255436D01*
X177213533Y-105216418D01*
X177206132Y-105182602D01*
X177189943Y-105147649D01*
X177166046Y-105120824D01*
X177134439Y-105102128D01*
X177103604Y-105093024D01*
X177067834Y-105089122D01*
X177058121Y-105088960D01*
X174865016Y-105088960D01*
X173507496Y-105088960D01*
X173507496Y-103799357D01*
X174814995Y-103799357D01*
X174815303Y-103833347D01*
X174816228Y-103866536D01*
X174817770Y-103898926D01*
X174819928Y-103930516D01*
X174824322Y-103976401D01*
X174830104Y-104020486D01*
X174837273Y-104062771D01*
X174845830Y-104103257D01*
X174855775Y-104141942D01*
X174867107Y-104178828D01*
X174879827Y-104213915D01*
X174893934Y-104247201D01*
X174909097Y-104279082D01*
X174925276Y-104309657D01*
X174942473Y-104338927D01*
X174960685Y-104366892D01*
X174979915Y-104393552D01*
X175000161Y-104418907D01*
X175021424Y-104442956D01*
X175043704Y-104465701D01*
X175067000Y-104487140D01*
X175091313Y-104507274D01*
X175108086Y-104519972D01*
X175134038Y-104538026D01*
X175160897Y-104554969D01*
X175188663Y-104570798D01*
X175217336Y-104585514D01*
X175246915Y-104599118D01*
X175277401Y-104611608D01*
X175308794Y-104622986D01*
X175341094Y-104633251D01*
X175374300Y-104642404D01*
X175408413Y-104650443D01*
X175431659Y-104655184D01*
X175466951Y-104661610D01*
X175502779Y-104667403D01*
X175539143Y-104672564D01*
X175576043Y-104677093D01*
X175613479Y-104680990D01*
X175651450Y-104684255D01*
X175689957Y-104686889D01*
X175729000Y-104688890D01*
X175768579Y-104690259D01*
X175808694Y-104690997D01*
X175835734Y-104691137D01*
X175870208Y-104690583D01*
X175902535Y-104689305D01*
X175934384Y-104687547D01*
X175951408Y-104686448D01*
X175985846Y-104683663D01*
X176020382Y-104680000D01*
X176055016Y-104675457D01*
X176089747Y-104670034D01*
X176123745Y-104664368D01*
X176156963Y-104658311D01*
X176189398Y-104651863D01*
X176221052Y-104645024D01*
X176253812Y-104637550D01*
X176284556Y-104629246D01*
X176315623Y-104618450D01*
X176315623Y-103484382D01*
X176351362Y-103485350D01*
X176385012Y-103488256D01*
X176416574Y-103493099D01*
X176455409Y-103502570D01*
X176490531Y-103515484D01*
X176521941Y-103531842D01*
X176549638Y-103551644D01*
X176573622Y-103574890D01*
X176589175Y-103594584D01*
X176607127Y-103624150D01*
X176622685Y-103657745D01*
X176635849Y-103695371D01*
X176644152Y-103726235D01*
X176651109Y-103759366D01*
X176656718Y-103794763D01*
X176660982Y-103832428D01*
X176663899Y-103872359D01*
X176665470Y-103914558D01*
X176665769Y-103943949D01*
X176665707Y-103984348D01*
X176665522Y-104022892D01*
X176665213Y-104059581D01*
X176664780Y-104094415D01*
X176664224Y-104127395D01*
X176663289Y-104168482D01*
X176662135Y-104206273D01*
X176660761Y-104240766D01*
X176658735Y-104279246D01*
X176656709Y-104314424D01*
X176655026Y-104348153D01*
X176653686Y-104380431D01*
X176652532Y-104417251D01*
X176651873Y-104451982D01*
X176651701Y-104479330D01*
X176653295Y-104511222D01*
X176659182Y-104543845D01*
X176671223Y-104575083D01*
X176691543Y-104602520D01*
X176697032Y-104607508D01*
X176725313Y-104626021D01*
X176755123Y-104637391D01*
X176789329Y-104643973D01*
X176822866Y-104645806D01*
X177117521Y-104645806D01*
X177129831Y-104615129D01*
X177142140Y-104581716D01*
X177154450Y-104545568D01*
X177166760Y-104506685D01*
X177175993Y-104475727D01*
X177185225Y-104443230D01*
X177194457Y-104409195D01*
X177203690Y-104373621D01*
X177212922Y-104336509D01*
X177216000Y-104323796D01*
X177224939Y-104284549D01*
X177232999Y-104243599D01*
X177240180Y-104200945D01*
X177246481Y-104156587D01*
X177251903Y-104110526D01*
X177255030Y-104078872D01*
X177257765Y-104046461D01*
X177260110Y-104013293D01*
X177262064Y-103979368D01*
X177263627Y-103944685D01*
X177264799Y-103909245D01*
X177265581Y-103873049D01*
X177265972Y-103836095D01*
X177266020Y-103817334D01*
X177265758Y-103784398D01*
X177264970Y-103752023D01*
X177263657Y-103720211D01*
X177261819Y-103688960D01*
X177258078Y-103643137D01*
X177253155Y-103598578D01*
X177247050Y-103555283D01*
X177239764Y-103513251D01*
X177231297Y-103472484D01*
X177221648Y-103432981D01*
X177210817Y-103394742D01*
X177198805Y-103357766D01*
X177185348Y-103322140D01*
X177170476Y-103287653D01*
X177154189Y-103254307D01*
X177136486Y-103222102D01*
X177117369Y-103191036D01*
X177096836Y-103161111D01*
X177074889Y-103132326D01*
X177051526Y-103104682D01*
X177026749Y-103078178D01*
X177000556Y-103052814D01*
X176982308Y-103036538D01*
X176953729Y-103013095D01*
X176923681Y-102990834D01*
X176892162Y-102969755D01*
X176859173Y-102949856D01*
X176824714Y-102931140D01*
X176788785Y-102913605D01*
X176751386Y-102897251D01*
X176712517Y-102882079D01*
X176672178Y-102868089D01*
X176630369Y-102855280D01*
X176601680Y-102847397D01*
X176557304Y-102836502D01*
X176511225Y-102826679D01*
X176479558Y-102820725D01*
X176447135Y-102815248D01*
X176413955Y-102810247D01*
X176380017Y-102805723D01*
X176345323Y-102801674D01*
X176309871Y-102798102D01*
X176273662Y-102795006D01*
X176236696Y-102792387D01*
X176198972Y-102790244D01*
X176160492Y-102788577D01*
X176121254Y-102787386D01*
X176081259Y-102786672D01*
X176040508Y-102786434D01*
X176000029Y-102786673D01*
X175960268Y-102787392D01*
X175921224Y-102788591D01*
X175882898Y-102790268D01*
X175845289Y-102792425D01*
X175808397Y-102795061D01*
X175772224Y-102798177D01*
X175736767Y-102801772D01*
X175702028Y-102805846D01*
X175668007Y-102810400D01*
X175634703Y-102815433D01*
X175602116Y-102820945D01*
X175570247Y-102826937D01*
X175539095Y-102833408D01*
X175478944Y-102847787D01*
X175421663Y-102864084D01*
X175367252Y-102882299D01*
X175315711Y-102902431D01*
X175267039Y-102924480D01*
X175221238Y-102948446D01*
X175178306Y-102974330D01*
X175138244Y-103002131D01*
X175101052Y-103031849D01*
X175066412Y-103063606D01*
X175034007Y-103097526D01*
X175003837Y-103133606D01*
X174975902Y-103171849D01*
X174950201Y-103212253D01*
X174926736Y-103254818D01*
X174905505Y-103299545D01*
X174886509Y-103346434D01*
X174869748Y-103395484D01*
X174855221Y-103446695D01*
X174842930Y-103500068D01*
X174832873Y-103555603D01*
X174825051Y-103613299D01*
X174819464Y-103673157D01*
X174816112Y-103735177D01*
X174815274Y-103766997D01*
X174815069Y-103790760D01*
X174814995Y-103799357D01*
X173507496Y-103799357D01*
X173507496Y-100408876D01*
X173964639Y-100408876D01*
X173964639Y-100994277D01*
X173967106Y-101033295D01*
X173974506Y-101067110D01*
X173990695Y-101102064D01*
X174014592Y-101128889D01*
X174046199Y-101147585D01*
X174077035Y-101156689D01*
X174112804Y-101160591D01*
X174122517Y-101160753D01*
X175080731Y-101160753D01*
X175048552Y-101191506D01*
X175018449Y-101222998D01*
X174990422Y-101255229D01*
X174964471Y-101288199D01*
X174940596Y-101321908D01*
X174918798Y-101356355D01*
X174899075Y-101391541D01*
X174881429Y-101427466D01*
X174865858Y-101464130D01*
X174852364Y-101501533D01*
X174840945Y-101539675D01*
X174831603Y-101578555D01*
X174824337Y-101618174D01*
X174819147Y-101658532D01*
X174816033Y-101699629D01*
X174814995Y-101741465D01*
X174815772Y-101781039D01*
X174818103Y-101819357D01*
X174821988Y-101856419D01*
X174827427Y-101892224D01*
X174834420Y-101926773D01*
X174842967Y-101960065D01*
X174853067Y-101992102D01*
X174864722Y-102022882D01*
X174877931Y-102052405D01*
X174892694Y-102080672D01*
X174909011Y-102107683D01*
X174926882Y-102133438D01*
X174946307Y-102157936D01*
X174967286Y-102181178D01*
X174989819Y-102203164D01*
X175013906Y-102223893D01*
X175039547Y-102243366D01*
X175066742Y-102261583D01*
X175095491Y-102278544D01*
X175125794Y-102294248D01*
X175157651Y-102308695D01*
X175191061Y-102321887D01*
X175226026Y-102333822D01*
X175262545Y-102344501D01*
X175300618Y-102353923D01*
X175340245Y-102362089D01*
X175381426Y-102368999D01*
X175424161Y-102374652D01*
X175468450Y-102379049D01*
X175514292Y-102382190D01*
X175561689Y-102384075D01*
X175610640Y-102384703D01*
X177216000Y-102384703D01*
X177216000Y-101800083D01*
X177213533Y-101760882D01*
X177206132Y-101726908D01*
X177193798Y-101698161D01*
X177171442Y-101669577D01*
X177141377Y-101649159D01*
X177111775Y-101638706D01*
X177077239Y-101633479D01*
X177058121Y-101632826D01*
X175695050Y-101632826D01*
X175659902Y-101631719D01*
X175627731Y-101628399D01*
X175593055Y-101621493D01*
X175562665Y-101611400D01*
X175532627Y-101595595D01*
X175521540Y-101587494D01*
X175499613Y-101564339D01*
X175483072Y-101533852D01*
X175473180Y-101501887D01*
X175467245Y-101464536D01*
X175465322Y-101429297D01*
X175465267Y-101421800D01*
X175466683Y-101387557D01*
X175470933Y-101352826D01*
X175476976Y-101322035D01*
X175485188Y-101290870D01*
X175487933Y-101281898D01*
X175498933Y-101251524D01*
X175514162Y-101219467D01*
X175532224Y-101190243D01*
X175553119Y-101163853D01*
X175555930Y-101160753D01*
X177216000Y-101160753D01*
X177216000Y-100575352D01*
X177213533Y-100536334D01*
X177206132Y-100502519D01*
X177189943Y-100467565D01*
X177166046Y-100440741D01*
X177134439Y-100422044D01*
X177103604Y-100412940D01*
X177067834Y-100409039D01*
X177058121Y-100408876D01*
X173964639Y-100408876D01*
X173507496Y-100408876D01*
X173507496Y-99378757D01*
X174314785Y-99378757D01*
X174317240Y-99417775D01*
X174324604Y-99451591D01*
X174340712Y-99486544D01*
X174364492Y-99513369D01*
X174395942Y-99532065D01*
X174426625Y-99541169D01*
X174462217Y-99545071D01*
X174471882Y-99545233D01*
X174865016Y-99545233D01*
X174865016Y-99887564D01*
X174867470Y-99926582D01*
X174874834Y-99960397D01*
X174890943Y-99995351D01*
X174914722Y-100022175D01*
X174946172Y-100040871D01*
X174976855Y-100049976D01*
X175012447Y-100053877D01*
X175022113Y-100054040D01*
X175465267Y-100054040D01*
X175465267Y-99545233D01*
X176432078Y-99545233D01*
X176473841Y-99547095D01*
X176511496Y-99552680D01*
X176545044Y-99561988D01*
X176574483Y-99575019D01*
X176607346Y-99598185D01*
X176632906Y-99627971D01*
X176651163Y-99664375D01*
X176660064Y-99696022D01*
X176664856Y-99731392D01*
X176665769Y-99757041D01*
X176665769Y-99887564D01*
X176668322Y-99926582D01*
X176675979Y-99960397D01*
X176688740Y-99989010D01*
X176711871Y-100017461D01*
X176742977Y-100037783D01*
X176773605Y-100048187D01*
X176809338Y-100053390D01*
X176829119Y-100054040D01*
X177189426Y-100054040D01*
X177199232Y-100020628D01*
X177208330Y-99987997D01*
X177216720Y-99956147D01*
X177224401Y-99925080D01*
X177233007Y-99887344D01*
X177240506Y-99850830D01*
X177246899Y-99815537D01*
X177248044Y-99808625D01*
X177253223Y-99773690D01*
X177257524Y-99737764D01*
X177260947Y-99700845D01*
X177263493Y-99662934D01*
X177265160Y-99624031D01*
X177265862Y-99592194D01*
X177266020Y-99567899D01*
X177265704Y-99534384D01*
X177264756Y-99501541D01*
X177263177Y-99469372D01*
X177260965Y-99437876D01*
X177257032Y-99396929D01*
X177251976Y-99357178D01*
X177245797Y-99318625D01*
X177238494Y-99281268D01*
X177230068Y-99245108D01*
X177220200Y-99210364D01*
X177208575Y-99176866D01*
X177195190Y-99144614D01*
X177180047Y-99113607D01*
X177163145Y-99083846D01*
X177144485Y-99055331D01*
X177124066Y-99028061D01*
X177101889Y-99002037D01*
X177077856Y-98977564D01*
X177051868Y-98954556D01*
X177023927Y-98933014D01*
X176994032Y-98912937D01*
X176962182Y-98894326D01*
X176928379Y-98877180D01*
X176892622Y-98861500D01*
X176854911Y-98847285D01*
X176825167Y-98837647D01*
X176793966Y-98828958D01*
X176761309Y-98821216D01*
X176727196Y-98814422D01*
X176691627Y-98808576D01*
X176654601Y-98803678D01*
X176616119Y-98799729D01*
X176576181Y-98796727D01*
X176534786Y-98794673D01*
X176491935Y-98793567D01*
X176462559Y-98793356D01*
X175465267Y-98793356D01*
X175465267Y-98703475D01*
X175462800Y-98664457D01*
X175455399Y-98630642D01*
X175439211Y-98595688D01*
X175415313Y-98568863D01*
X175383706Y-98550167D01*
X175352871Y-98541063D01*
X175317101Y-98537161D01*
X175307388Y-98536999D01*
X174865016Y-98536999D01*
X174865016Y-98820711D01*
X174314785Y-98856664D01*
X174314785Y-99378757D01*
X173507496Y-99378757D01*
X173507496Y-97234110D01*
X174814995Y-97234110D01*
X174815211Y-97266744D01*
X174815862Y-97298797D01*
X174816946Y-97330271D01*
X174820414Y-97391478D01*
X174825616Y-97450365D01*
X174832553Y-97506932D01*
X174841223Y-97561178D01*
X174851628Y-97613104D01*
X174863767Y-97662710D01*
X174877640Y-97709996D01*
X174893247Y-97754961D01*
X174910588Y-97797605D01*
X174929664Y-97837930D01*
X174950473Y-97875934D01*
X174973017Y-97911618D01*
X174997294Y-97944982D01*
X175023306Y-97976025D01*
X175036963Y-97990676D01*
X175065353Y-98018502D01*
X175095227Y-98044532D01*
X175126584Y-98068767D01*
X175159426Y-98091207D01*
X175193751Y-98111851D01*
X175229560Y-98130701D01*
X175266853Y-98147755D01*
X175305630Y-98163014D01*
X175345890Y-98176478D01*
X175387634Y-98188147D01*
X175430862Y-98198020D01*
X175475574Y-98206099D01*
X175521769Y-98212382D01*
X175569449Y-98216870D01*
X175618612Y-98219562D01*
X175669258Y-98220460D01*
X177216000Y-98220460D01*
X177216000Y-97788248D01*
X177215168Y-97756151D01*
X177212043Y-97722742D01*
X177208965Y-97704619D01*
X177197437Y-97673747D01*
X177178484Y-97648346D01*
X177153457Y-97628688D01*
X177125654Y-97613040D01*
X177115958Y-97608485D01*
X177086245Y-97596127D01*
X177055226Y-97584891D01*
X177024046Y-97574780D01*
X177016697Y-97572533D01*
X176936976Y-97545177D01*
X176961645Y-97521852D01*
X176986020Y-97496817D01*
X177010103Y-97470073D01*
X177033892Y-97441618D01*
X177057388Y-97411454D01*
X177080591Y-97379581D01*
X177103501Y-97345997D01*
X177120491Y-97319688D01*
X177126118Y-97310704D01*
X177142181Y-97283142D01*
X177156664Y-97254385D01*
X177169567Y-97224432D01*
X177180890Y-97193285D01*
X177190633Y-97160941D01*
X177198796Y-97127403D01*
X177205379Y-97092669D01*
X177210382Y-97056741D01*
X177213805Y-97019616D01*
X177215648Y-96981297D01*
X177216000Y-96955087D01*
X177215230Y-96915226D01*
X177212922Y-96876538D01*
X177209075Y-96839023D01*
X177203690Y-96802679D01*
X177196765Y-96767508D01*
X177188302Y-96733510D01*
X177178301Y-96700683D01*
X177166760Y-96669030D01*
X177153681Y-96638548D01*
X177139063Y-96609239D01*
X177122906Y-96581102D01*
X177105211Y-96554138D01*
X177085977Y-96528346D01*
X177065204Y-96503726D01*
X177042892Y-96480279D01*
X177019042Y-96458004D01*
X176993681Y-96436993D01*
X176967031Y-96417337D01*
X176939092Y-96399037D01*
X176909866Y-96382093D01*
X176879350Y-96366504D01*
X176847547Y-96352271D01*
X176814455Y-96339393D01*
X176780075Y-96327871D01*
X176744406Y-96317704D01*
X176707449Y-96308893D01*
X176669204Y-96301438D01*
X176629670Y-96295338D01*
X176588848Y-96290594D01*
X176546737Y-96287205D01*
X176503339Y-96285171D01*
X176458651Y-96284494D01*
X176413062Y-96285187D01*
X176369203Y-96287269D01*
X176327076Y-96290738D01*
X176286680Y-96295594D01*
X176248015Y-96301839D01*
X176211081Y-96309470D01*
X176175878Y-96318490D01*
X176142406Y-96328897D01*
X176110665Y-96340692D01*
X176080655Y-96353874D01*
X176061610Y-96363433D01*
X176034272Y-96378687D01*
X175999853Y-96400437D01*
X175967753Y-96423799D01*
X175937974Y-96448773D01*
X175910515Y-96475359D01*
X175885376Y-96503557D01*
X175862558Y-96533366D01*
X175842059Y-96564788D01*
X175837297Y-96572896D01*
X175819175Y-96606088D01*
X175802713Y-96640404D01*
X175787912Y-96675844D01*
X175774771Y-96712407D01*
X175763292Y-96750094D01*
X175753473Y-96788904D01*
X175745316Y-96828838D01*
X175738819Y-96869895D01*
X175734628Y-96901233D01*
X175730850Y-96932818D01*
X175727484Y-96964650D01*
X175724531Y-96996730D01*
X175721989Y-97029057D01*
X175719859Y-97061632D01*
X175718142Y-97094453D01*
X175716837Y-97127522D01*
X175715944Y-97160838D01*
X175715463Y-97194402D01*
X175715371Y-97216915D01*
X175715371Y-97486559D01*
X175715371Y-97491249D01*
X175598135Y-97491249D01*
X175561628Y-97488825D01*
X175529777Y-97481555D01*
X175497702Y-97466434D01*
X175472331Y-97444333D01*
X175453665Y-97415252D01*
X175444946Y-97391988D01*
X175436390Y-97358336D01*
X175429284Y-97319418D01*
X175424643Y-97284491D01*
X175420931Y-97246194D01*
X175418146Y-97204526D01*
X175416667Y-97171063D01*
X175415710Y-97135704D01*
X175415275Y-97098450D01*
X175415246Y-97085610D01*
X175415328Y-97051362D01*
X175415576Y-97017787D01*
X175415988Y-96984885D01*
X175416565Y-96952657D01*
X175417307Y-96921101D01*
X175418552Y-96880074D01*
X175420091Y-96840245D01*
X175421923Y-96801611D01*
X175424048Y-96764175D01*
X175424625Y-96755003D01*
X175426640Y-96720113D01*
X175428386Y-96688520D01*
X175430191Y-96653666D01*
X175431803Y-96618641D01*
X175432920Y-96587156D01*
X175433222Y-96568206D01*
X175431090Y-96532986D01*
X175423433Y-96498597D01*
X175408163Y-96467383D01*
X175388672Y-96446280D01*
X175362122Y-96428901D01*
X175330157Y-96416261D01*
X175299169Y-96410889D01*
X175284722Y-96410327D01*
X174968184Y-96410327D01*
X174954775Y-96443129D01*
X174941512Y-96478618D01*
X174928397Y-96516793D01*
X174918656Y-96547187D01*
X174908998Y-96579093D01*
X174899422Y-96612510D01*
X174889928Y-96647438D01*
X174880517Y-96683878D01*
X174871189Y-96721829D01*
X174865016Y-96747969D01*
X174856076Y-96788232D01*
X174848016Y-96829595D01*
X174840836Y-96872056D01*
X174834534Y-96915617D01*
X174829112Y-96960277D01*
X174824569Y-97006036D01*
X174820905Y-97052894D01*
X174818951Y-97084743D01*
X174817388Y-97117081D01*
X174816216Y-97149907D01*
X174815434Y-97183222D01*
X174815043Y-97217025D01*
X174814995Y-97234110D01*
X173507496Y-97234110D01*
X173507496Y-95108220D01*
X174814995Y-95108220D01*
X174815303Y-95142209D01*
X174816228Y-95175399D01*
X174817770Y-95207789D01*
X174819928Y-95239378D01*
X174824322Y-95285263D01*
X174830104Y-95329348D01*
X174837273Y-95371634D01*
X174845830Y-95412119D01*
X174855775Y-95450805D01*
X174867107Y-95487691D01*
X174879827Y-95522777D01*
X174893934Y-95556064D01*
X174909097Y-95587944D01*
X174925276Y-95618520D01*
X174942473Y-95647790D01*
X174960685Y-95675755D01*
X174979915Y-95702415D01*
X175000161Y-95727769D01*
X175021424Y-95751819D01*
X175043704Y-95774563D01*
X175067000Y-95796003D01*
X175091313Y-95816137D01*
X175108086Y-95828834D01*
X175134038Y-95846889D01*
X175160897Y-95863831D01*
X175188663Y-95879660D01*
X175217336Y-95894377D01*
X175246915Y-95907980D01*
X175277401Y-95920471D01*
X175308794Y-95931849D01*
X175341094Y-95942114D01*
X175374300Y-95951266D01*
X175408413Y-95959306D01*
X175431659Y-95964047D01*
X175466951Y-95970472D01*
X175502779Y-95976265D01*
X175539143Y-95981426D01*
X175576043Y-95985956D01*
X175613479Y-95989853D01*
X175651450Y-95993118D01*
X175689957Y-95995751D01*
X175729000Y-95997752D01*
X175768579Y-95999122D01*
X175808694Y-95999859D01*
X175835734Y-96000000D01*
X175870208Y-95999445D01*
X175902535Y-95998168D01*
X175934384Y-95996409D01*
X175951408Y-95995310D01*
X175985846Y-95992526D01*
X176020382Y-95988862D01*
X176055016Y-95984319D01*
X176089747Y-95978897D01*
X176123745Y-95973230D01*
X176156963Y-95967173D01*
X176189398Y-95960725D01*
X176221052Y-95953886D01*
X176253812Y-95946413D01*
X176284556Y-95938108D01*
X176315623Y-95927313D01*
X176315623Y-94793244D01*
X176351362Y-94794213D01*
X176385012Y-94797119D01*
X176416574Y-94801962D01*
X176455409Y-94811432D01*
X176490531Y-94824346D01*
X176521941Y-94840705D01*
X176549638Y-94860507D01*
X176573622Y-94883752D01*
X176589175Y-94903447D01*
X176607127Y-94933012D01*
X176622685Y-94966608D01*
X176635849Y-95004234D01*
X176644152Y-95035098D01*
X176651109Y-95068228D01*
X176656718Y-95103626D01*
X176660982Y-95141290D01*
X176663899Y-95181222D01*
X176665470Y-95223420D01*
X176665769Y-95252812D01*
X176665707Y-95293210D01*
X176665522Y-95331754D01*
X176665213Y-95368443D01*
X176664780Y-95403278D01*
X176664224Y-95436257D01*
X176663289Y-95477345D01*
X176662135Y-95515135D01*
X176660761Y-95549629D01*
X176658735Y-95588108D01*
X176656709Y-95623287D01*
X176655026Y-95657015D01*
X176653686Y-95689294D01*
X176652532Y-95726113D01*
X176651873Y-95760845D01*
X176651701Y-95788192D01*
X176653295Y-95820084D01*
X176659182Y-95852707D01*
X176671223Y-95883946D01*
X176691543Y-95911382D01*
X176697032Y-95916371D01*
X176725313Y-95934884D01*
X176755123Y-95946253D01*
X176789329Y-95952835D01*
X176822866Y-95954668D01*
X177117521Y-95954668D01*
X177129831Y-95923991D01*
X177142140Y-95890579D01*
X177154450Y-95854431D01*
X177166760Y-95815547D01*
X177175993Y-95784590D01*
X177185225Y-95752093D01*
X177194457Y-95718058D01*
X177203690Y-95682484D01*
X177212922Y-95645371D01*
X177216000Y-95632658D01*
X177224939Y-95593411D01*
X177232999Y-95552461D01*
X177240180Y-95509807D01*
X177246481Y-95465450D01*
X177251903Y-95419388D01*
X177255030Y-95387735D01*
X177257765Y-95355324D01*
X177260110Y-95322155D01*
X177262064Y-95288230D01*
X177263627Y-95253548D01*
X177264799Y-95218108D01*
X177265581Y-95181911D01*
X177265972Y-95144957D01*
X177266020Y-95126196D01*
X177265758Y-95093260D01*
X177264970Y-95060886D01*
X177263657Y-95029073D01*
X177261819Y-94997822D01*
X177258078Y-94951999D01*
X177253155Y-94907440D01*
X177247050Y-94864145D01*
X177239764Y-94822114D01*
X177231297Y-94781347D01*
X177221648Y-94741844D01*
X177210817Y-94703604D01*
X177198805Y-94666629D01*
X177185348Y-94631002D01*
X177170476Y-94596516D01*
X177154189Y-94563170D01*
X177136486Y-94530964D01*
X177117369Y-94499899D01*
X177096836Y-94469974D01*
X177074889Y-94441189D01*
X177051526Y-94413545D01*
X177026749Y-94387040D01*
X177000556Y-94361676D01*
X176982308Y-94345401D01*
X176953729Y-94321958D01*
X176923681Y-94299697D01*
X176892162Y-94278617D01*
X176859173Y-94258719D01*
X176824714Y-94240002D01*
X176788785Y-94222467D01*
X176751386Y-94206114D01*
X176712517Y-94190942D01*
X176672178Y-94176951D01*
X176630369Y-94164142D01*
X176601680Y-94156259D01*
X176557304Y-94145364D01*
X176511225Y-94135541D01*
X176479558Y-94129588D01*
X176447135Y-94124111D01*
X176413955Y-94119110D01*
X176380017Y-94114585D01*
X176345323Y-94110537D01*
X176309871Y-94106965D01*
X176273662Y-94103869D01*
X176236696Y-94101250D01*
X176198972Y-94099106D01*
X176160492Y-94097439D01*
X176121254Y-94096249D01*
X176081259Y-94095534D01*
X176040508Y-94095296D01*
X176000029Y-94095536D01*
X175960268Y-94096255D01*
X175921224Y-94097453D01*
X175882898Y-94099131D01*
X175845289Y-94101288D01*
X175808397Y-94103924D01*
X175772224Y-94107040D01*
X175736767Y-94110635D01*
X175702028Y-94114709D01*
X175668007Y-94119262D01*
X175634703Y-94124295D01*
X175602116Y-94129808D01*
X175570247Y-94135799D01*
X175539095Y-94142270D01*
X175478944Y-94156650D01*
X175421663Y-94172947D01*
X175367252Y-94191161D01*
X175315711Y-94211293D01*
X175267039Y-94233342D01*
X175221238Y-94257308D01*
X175178306Y-94283192D01*
X175138244Y-94310993D01*
X175101052Y-94340711D01*
X175066412Y-94372469D01*
X175034007Y-94406388D01*
X175003837Y-94442469D01*
X174975902Y-94480711D01*
X174950201Y-94521115D01*
X174926736Y-94563681D01*
X174905505Y-94608408D01*
X174886509Y-94655296D01*
X174869748Y-94704346D01*
X174855221Y-94755558D01*
X174842930Y-94808931D01*
X174832873Y-94864466D01*
X174825051Y-94922162D01*
X174819464Y-94982020D01*
X174816112Y-95044039D01*
X174815274Y-95075859D01*
X174815069Y-95099623D01*
X174814995Y-95108220D01*
X173507496Y-95108220D01*
X173507496Y-90543810D01*
X174114702Y-90543810D01*
X174114702Y-91174542D01*
X174117095Y-91209458D01*
X174125692Y-91243591D01*
X174140542Y-91271569D01*
X174164722Y-91295687D01*
X174194583Y-91313437D01*
X174224760Y-91325063D01*
X174258355Y-91332781D01*
X174290556Y-91336329D01*
X174337314Y-91338800D01*
X174383796Y-91341229D01*
X174430004Y-91343617D01*
X174475937Y-91345964D01*
X174521595Y-91348270D01*
X174566978Y-91350535D01*
X174612087Y-91352758D01*
X174656921Y-91354940D01*
X174701480Y-91357081D01*
X174745764Y-91359181D01*
X174775134Y-91360558D01*
X174819276Y-91362852D01*
X174863776Y-91365339D01*
X174908633Y-91368018D01*
X174953847Y-91370889D01*
X174999418Y-91373953D01*
X175045346Y-91377209D01*
X175091632Y-91380657D01*
X175138274Y-91384298D01*
X175169568Y-91386832D01*
X175201020Y-91389452D01*
X175232632Y-91392157D01*
X175264401Y-91394947D01*
X175296293Y-91397832D01*
X175328466Y-91400821D01*
X175360920Y-91403914D01*
X175393655Y-91407110D01*
X175426670Y-91410411D01*
X175459967Y-91413815D01*
X175493544Y-91417323D01*
X175527402Y-91420935D01*
X175561541Y-91424650D01*
X175595961Y-91428469D01*
X175630662Y-91432393D01*
X175665644Y-91436420D01*
X175700906Y-91440550D01*
X175736450Y-91444785D01*
X175772274Y-91449123D01*
X175808379Y-91453565D01*
X175844887Y-91458130D01*
X175881921Y-91462834D01*
X175919479Y-91467680D01*
X175957563Y-91472665D01*
X175996171Y-91477791D01*
X176035305Y-91483058D01*
X176074964Y-91488465D01*
X176115148Y-91494012D01*
X176155857Y-91499700D01*
X176197092Y-91505528D01*
X176238851Y-91511497D01*
X176281136Y-91517606D01*
X176323945Y-91523855D01*
X176367280Y-91530245D01*
X176411140Y-91536776D01*
X176455525Y-91543447D01*
X174364806Y-91894375D01*
X174364806Y-92421158D01*
X174366975Y-92454326D01*
X174374767Y-92486371D01*
X174390305Y-92514947D01*
X174410138Y-92533705D01*
X174438412Y-92550246D01*
X174468942Y-92562459D01*
X174499824Y-92571221D01*
X174534595Y-92578188D01*
X174539879Y-92579036D01*
X176455525Y-92889323D01*
X176412712Y-92895993D01*
X176370248Y-92902524D01*
X176328131Y-92908914D01*
X176286362Y-92915163D01*
X176244942Y-92921273D01*
X176203869Y-92927241D01*
X176163145Y-92933070D01*
X176122769Y-92938757D01*
X176082740Y-92944305D01*
X176043060Y-92949712D01*
X176003728Y-92954978D01*
X175964743Y-92960104D01*
X175926107Y-92965090D01*
X175887819Y-92969935D01*
X175849879Y-92974640D01*
X175812287Y-92979204D01*
X175774948Y-92983655D01*
X175737769Y-92988021D01*
X175700747Y-92992301D01*
X175663885Y-92996496D01*
X175627181Y-93000606D01*
X175590637Y-93004630D01*
X175554251Y-93008568D01*
X175518023Y-93012421D01*
X175481955Y-93016188D01*
X175446045Y-93019870D01*
X175410294Y-93023467D01*
X175374702Y-93026978D01*
X175339268Y-93030403D01*
X175303993Y-93033743D01*
X175268877Y-93036998D01*
X175233920Y-93040167D01*
X175199060Y-93043266D01*
X175164237Y-93046310D01*
X175129451Y-93049299D01*
X175094702Y-93052233D01*
X175059989Y-93055112D01*
X175025312Y-93057936D01*
X174990672Y-93060705D01*
X174956069Y-93063419D01*
X174921503Y-93066078D01*
X174886973Y-93068682D01*
X174852480Y-93071232D01*
X174818023Y-93073726D01*
X174783603Y-93076165D01*
X174749220Y-93078550D01*
X174714873Y-93080879D01*
X174680563Y-93083154D01*
X174646113Y-93085382D01*
X174611540Y-93087575D01*
X174576846Y-93089730D01*
X174542029Y-93091849D01*
X174507090Y-93093931D01*
X174472029Y-93095976D01*
X174436846Y-93097985D01*
X174401540Y-93099958D01*
X174366113Y-93101893D01*
X174330563Y-93103792D01*
X174294892Y-93105655D01*
X174259098Y-93107480D01*
X174223182Y-93109269D01*
X174187144Y-93111022D01*
X174150984Y-93112738D01*
X174114702Y-93114417D01*
X174114702Y-93713105D01*
X174117242Y-93745101D01*
X174126172Y-93776308D01*
X174143635Y-93805037D01*
X174155344Y-93817055D01*
X174183151Y-93834434D01*
X174216172Y-93845107D01*
X174251478Y-93850760D01*
X174286502Y-93852867D01*
X174299154Y-93853007D01*
X174331898Y-93851977D01*
X174365832Y-93849417D01*
X174377311Y-93848318D01*
X174410361Y-93845005D01*
X174442185Y-93841806D01*
X174473959Y-93838605D01*
X174509398Y-93835031D01*
X174553096Y-93830582D01*
X174598608Y-93825734D01*
X174629956Y-93822281D01*
X174662111Y-93818651D01*
X174695071Y-93814844D01*
X174728838Y-93810860D01*
X174763411Y-93806699D01*
X174798789Y-93802360D01*
X174834974Y-93797845D01*
X174871964Y-93793152D01*
X174909761Y-93788283D01*
X174948363Y-93783236D01*
X174987772Y-93778012D01*
X175027987Y-93772612D01*
X175069007Y-93767034D01*
X175110486Y-93761401D01*
X175152270Y-93755640D01*
X175194359Y-93749750D01*
X175236753Y-93743733D01*
X175279453Y-93737587D01*
X175322458Y-93731313D01*
X175365768Y-93724911D01*
X175409384Y-93718381D01*
X175453305Y-93711722D01*
X175497531Y-93704935D01*
X175542063Y-93698020D01*
X175586900Y-93690976D01*
X175632042Y-93683805D01*
X175677489Y-93676505D01*
X175723242Y-93669077D01*
X175769300Y-93661521D01*
X175815450Y-93653821D01*
X175861673Y-93645963D01*
X175907969Y-93637945D01*
X175954339Y-93629769D01*
X176000781Y-93621434D01*
X176047297Y-93612941D01*
X176093887Y-93604289D01*
X176140549Y-93595478D01*
X176187285Y-93586508D01*
X176234094Y-93577379D01*
X176280977Y-93568092D01*
X176327933Y-93558646D01*
X176374961Y-93549041D01*
X176422064Y-93539277D01*
X176469239Y-93529355D01*
X176516488Y-93519274D01*
X176563459Y-93509138D01*
X176609996Y-93498855D01*
X176656100Y-93488426D01*
X176701771Y-93477850D01*
X176747007Y-93467128D01*
X176791811Y-93456259D01*
X176836181Y-93445244D01*
X176880117Y-93434082D01*
X176923619Y-93422773D01*
X176966689Y-93411318D01*
X177009324Y-93399717D01*
X177051526Y-93387969D01*
X177093295Y-93376074D01*
X177134630Y-93364033D01*
X177175532Y-93351845D01*
X177216000Y-93339511D01*
X177216000Y-92664228D01*
X177213756Y-92630804D01*
X177205696Y-92597001D01*
X177191774Y-92567887D01*
X177171990Y-92543463D01*
X177169105Y-92540739D01*
X177143459Y-92521102D01*
X177114199Y-92505177D01*
X177081324Y-92492965D01*
X177049593Y-92485325D01*
X177044834Y-92484466D01*
X175395706Y-92210132D01*
X177216000Y-91894375D01*
X177216000Y-91233161D01*
X177214279Y-91198021D01*
X177209118Y-91167145D01*
X177199006Y-91137079D01*
X177182259Y-91109910D01*
X177180047Y-91107327D01*
X177156980Y-91085888D01*
X177128225Y-91067292D01*
X177097890Y-91053151D01*
X177072189Y-91044019D01*
X177029856Y-91030509D01*
X176985214Y-91016945D01*
X176954171Y-91007871D01*
X176922102Y-90998773D01*
X176889007Y-90989651D01*
X176854886Y-90980504D01*
X176819740Y-90971332D01*
X176783568Y-90962137D01*
X176746369Y-90952916D01*
X176708145Y-90943672D01*
X176668896Y-90934403D01*
X176628620Y-90925109D01*
X176587318Y-90915792D01*
X176544991Y-90906449D01*
X176501638Y-90897083D01*
X176457552Y-90887829D01*
X176413027Y-90878630D01*
X176368062Y-90869486D01*
X176322657Y-90860397D01*
X176276812Y-90851363D01*
X176230528Y-90842384D01*
X176183805Y-90833460D01*
X176136642Y-90824591D01*
X176089039Y-90815777D01*
X176040996Y-90807018D01*
X175992514Y-90798314D01*
X175943592Y-90789665D01*
X175894230Y-90781070D01*
X175844429Y-90772531D01*
X175794189Y-90764047D01*
X175743508Y-90755617D01*
X175692538Y-90747255D01*
X175641427Y-90738972D01*
X175590176Y-90730768D01*
X175538784Y-90722644D01*
X175487252Y-90714600D01*
X175435579Y-90706634D01*
X175383766Y-90698748D01*
X175331812Y-90690942D01*
X175279719Y-90683214D01*
X175227484Y-90675566D01*
X175175109Y-90667998D01*
X175122594Y-90660509D01*
X175069938Y-90653099D01*
X175017142Y-90645769D01*
X174964206Y-90638518D01*
X174911129Y-90631346D01*
X174858192Y-90624410D01*
X174805677Y-90617669D01*
X174753583Y-90611123D01*
X174701910Y-90604773D01*
X174650659Y-90598618D01*
X174599829Y-90592658D01*
X174549420Y-90586894D01*
X174499433Y-90581325D01*
X174449867Y-90575952D01*
X174400722Y-90570774D01*
X174351999Y-90565792D01*
X174303697Y-90561004D01*
X174255816Y-90556413D01*
X174208356Y-90552016D01*
X174161318Y-90547815D01*
X174114702Y-90543810D01*
X173507496Y-90543810D01*
X173507496Y-90086667D01*
X177723163Y-90086667D01*
X177723163Y-122953388D01*
G37*
D12*
%TO.P,uC1,1,3V3*%
%TO.N,/3V3*%
X128820000Y-115400000D03*
%TO.P,uC1,2,GND*%
%TO.N,/GND*%
X131360000Y-115400000D03*
%TO.P,uC1,3,GPIO15*%
%TO.N,unconnected-(uC1-GPIO15-Pad3)*%
X133900000Y-115400000D03*
%TO.P,uC1,4,GPIO2*%
%TO.N,unconnected-(uC1-GPIO2-Pad4)*%
X136440000Y-115400000D03*
%TO.P,uC1,5,GPIO4*%
%TO.N,unconnected-(uC1-GPIO4-Pad5)*%
X138980000Y-115400000D03*
%TO.P,uC1,6,RX2*%
%TO.N,unconnected-(uC1-RX2-Pad6)*%
X141520000Y-115400000D03*
%TO.P,uC1,7,TX2*%
%TO.N,unconnected-(uC1-TX2-Pad7)*%
X144060000Y-115400000D03*
%TO.P,uC1,8,GPIO5*%
%TO.N,unconnected-(uC1-GPIO5-Pad8)*%
X146600000Y-115400000D03*
%TO.P,uC1,9,GPIO18*%
%TO.N,unconnected-(uC1-GPIO18-Pad9)*%
X149140000Y-115400000D03*
%TO.P,uC1,10,GPIO19*%
%TO.N,unconnected-(uC1-GPIO19-Pad10)*%
X151680000Y-115400000D03*
%TO.P,uC1,11,I2C SDA*%
%TO.N,/SDA*%
X154220000Y-115400000D03*
%TO.P,uC1,12,RX0*%
%TO.N,unconnected-(uC1-RX0-Pad12)*%
X156760000Y-115400000D03*
%TO.P,uC1,13,TX0*%
%TO.N,unconnected-(uC1-TX0-Pad13)*%
X159300000Y-115400000D03*
%TO.P,uC1,14,I2C SCL*%
%TO.N,/SCL*%
X161840000Y-115400000D03*
%TO.P,uC1,15,GPIO23*%
%TO.N,unconnected-(uC1-GPIO23-Pad15)*%
X164380000Y-115400000D03*
%TO.P,uC1,16,EN*%
%TO.N,unconnected-(uC1-EN-Pad16)*%
X164380000Y-90000000D03*
%TO.P,uC1,17,VP*%
%TO.N,unconnected-(uC1-VP-Pad17)*%
X161840000Y-90000000D03*
%TO.P,uC1,18,VN*%
%TO.N,unconnected-(uC1-VN-Pad18)*%
X159300000Y-90000000D03*
%TO.P,uC1,19,GPIO34(IP)*%
%TO.N,unconnected-(uC1-GPIO34(IP)-Pad19)*%
X156760000Y-90000000D03*
%TO.P,uC1,20,GPIO35(IP)*%
%TO.N,unconnected-(uC1-GPIO35(IP)-Pad20)*%
X154220000Y-90000000D03*
%TO.P,uC1,21,GPIO32*%
%TO.N,/DHT11*%
X151680000Y-90000000D03*
%TO.P,uC1,22,GPIO33*%
%TO.N,unconnected-(uC1-GPIO33-Pad22)*%
X149140000Y-90000000D03*
%TO.P,uC1,23,GPIO25*%
%TO.N,unconnected-(uC1-GPIO25-Pad23)*%
X146600000Y-90000000D03*
%TO.P,uC1,24,GPIO26*%
%TO.N,unconnected-(uC1-GPIO26-Pad24)*%
X144060000Y-90000000D03*
%TO.P,uC1,25,GPIO27*%
%TO.N,unconnected-(uC1-GPIO27-Pad25)*%
X141520000Y-90000000D03*
%TO.P,uC1,26,GPIO14*%
%TO.N,unconnected-(uC1-GPIO14-Pad26)*%
X138980000Y-90000000D03*
%TO.P,uC1,27,GPIO12*%
%TO.N,unconnected-(uC1-GPIO12-Pad27)*%
X136440000Y-90000000D03*
%TO.P,uC1,28,GPIO13*%
%TO.N,unconnected-(uC1-GPIO13-Pad28)*%
X133900000Y-90000000D03*
%TO.P,uC1,29,GND*%
%TO.N,/GND*%
X131360000Y-90000000D03*
%TO.P,uC1,30,VIN*%
%TO.N,/5V*%
X128820000Y-90000000D03*
%TD*%
D13*
%TO.P,oled1,1,Pin_1*%
%TO.N,/GND*%
X119078613Y-129724177D03*
%TO.P,oled1,2,Pin_2*%
%TO.N,/3V3*%
X119078613Y-127184177D03*
%TO.P,oled1,3,Pin_3*%
%TO.N,/SCL*%
X119078613Y-124644177D03*
%TO.P,oled1,4,Pin_4*%
%TO.N,/SDA*%
X119078613Y-122104177D03*
%TD*%
%TO.P,dht11,1,Pin_1*%
%TO.N,/GND*%
X181400000Y-76875001D03*
%TO.P,dht11,2,Pin_2*%
%TO.N,/DHT11*%
X181400000Y-79415001D03*
%TO.P,dht11,3,Pin_3*%
%TO.N,/3V3*%
X181400000Y-81955001D03*
%TD*%
%TO.P,bmp1,1,Pin_1*%
%TO.N,unconnected-(bmp1-Pin_1-Pad1)*%
X113700001Y-85025000D03*
%TO.P,bmp1,2,Pin_2*%
%TO.N,unconnected-(bmp1-Pin_2-Pad2)*%
X113700001Y-82485000D03*
%TO.P,bmp1,3,Pin_3*%
%TO.N,/SDA*%
X113700001Y-79945000D03*
%TO.P,bmp1,4,Pin_4*%
%TO.N,/SCL*%
X113700001Y-77405000D03*
%TO.P,bmp1,5,Pin_5*%
%TO.N,/GND*%
X113700001Y-74865000D03*
%TO.P,bmp1,6,Pin_6*%
%TO.N,/5V*%
X113700001Y-72325000D03*
%TD*%
D14*
%TO.N,/SCL*%
X159169999Y-105300000D02*
X161840000Y-107970001D01*
X121940000Y-79770001D02*
X121940000Y-100680000D01*
X161840000Y-121670001D02*
X158865824Y-124644177D01*
X161840000Y-107970001D02*
X161840000Y-121670001D01*
X113700000Y-77405000D02*
X119574999Y-77405000D01*
X119574999Y-77405000D02*
X121940000Y-79770001D01*
X121940000Y-100680000D02*
X126560000Y-105300000D01*
X126560000Y-105300000D02*
X159169999Y-105300000D01*
X158865824Y-124644177D02*
X119078613Y-124644177D01*
%TO.N,/SDA*%
X151969999Y-108300000D02*
X124700000Y-108300000D01*
X124700000Y-108300000D02*
X119040000Y-102640000D01*
X119040000Y-82270001D02*
X116714999Y-79945000D01*
X151705824Y-122104177D02*
X154220000Y-119590001D01*
X116714999Y-79945000D02*
X113699999Y-79945000D01*
X154220000Y-110550001D02*
X151969999Y-108300000D01*
X154220000Y-119590001D02*
X154220000Y-115400000D01*
X119078613Y-122104177D02*
X151705824Y-122104177D01*
X154220000Y-115400000D02*
X154220000Y-110550001D01*
X119040000Y-102640000D02*
X119040000Y-82270001D01*
%TO.N,/5V*%
X125994999Y-72325000D02*
X128820000Y-75150001D01*
X128820000Y-75150001D02*
X128820000Y-90000001D01*
X113700000Y-72325000D02*
X125994999Y-72325000D01*
%TO.N,/GND*%
X113700001Y-74865000D02*
X122634999Y-74865000D01*
X113060000Y-127590001D02*
X115194176Y-129724177D01*
X115310001Y-111400000D02*
X113060000Y-113650001D01*
X115194176Y-129724177D02*
X119078613Y-129724177D01*
X131360000Y-78950001D02*
X131360000Y-90000000D01*
X130440000Y-93470001D02*
X131360000Y-92550001D01*
X129560000Y-111400000D02*
X115310001Y-111400000D01*
X131360000Y-115400000D02*
X131360000Y-113200000D01*
X126640000Y-93470001D02*
X130440000Y-93470001D01*
X133435000Y-76875001D02*
X131360000Y-78950001D01*
X125040000Y-77270001D02*
X125040000Y-91870001D01*
X131360000Y-92550001D02*
X131360000Y-90000000D01*
X122634999Y-74865000D02*
X125040000Y-77270001D01*
X131360000Y-113200000D02*
X129560000Y-111400000D01*
X181400000Y-76875001D02*
X133435000Y-76875001D01*
X125040000Y-91870001D02*
X126640000Y-93470001D01*
X113060000Y-113650001D02*
X113060000Y-127590001D01*
%TO.N,/DHT11*%
X181400000Y-79415000D02*
X153695001Y-79415000D01*
X153695001Y-79415000D02*
X151680000Y-81430001D01*
X151680000Y-81430001D02*
X151680000Y-90000001D01*
%TO.N,/3V3*%
X117310001Y-115400000D02*
X115400000Y-117310001D01*
X168760000Y-83750001D02*
X170555000Y-81955001D01*
X119078613Y-127184177D02*
X166425824Y-127184177D01*
X115400000Y-125740000D02*
X116844177Y-127184177D01*
X115400000Y-117310001D02*
X115400000Y-125740000D01*
X170555000Y-81955001D02*
X181400000Y-81955001D01*
X166425824Y-127184177D02*
X168760000Y-124850001D01*
X168760000Y-124850001D02*
X168760000Y-83750001D01*
X128820000Y-115400000D02*
X117310001Y-115400000D01*
X116844177Y-127184177D02*
X119078613Y-127184177D01*
%TD*%
D15*
X184400000Y-134000000D02*
X110500000Y-134000000D01*
X110500000Y-69000000D01*
X184400000Y-69000000D01*
X184400000Y-134000000D01*
M02*
